<?xml version="1.0" encoding="utf-8"?>
<!-- Generator: Adobe Illustrator 19.1.0, SVG Export Plug-In . SVG Version: 6.00 Build 0)  -->
<svg version="1.1" xmlns="http://www.w3.org/2000/svg" xmlns:xlink="http://www.w3.org/1999/xlink" x="0px" y="0px"
	 viewBox="0 0 191 222.287" enable-background="new 0 0 191 222.287" xml:space="preserve">
<g id="Ebene_1">
	<path fill="#3061B1" d="M189.098,73.124c-6.8,0-12.317-5.513-12.317-12.315c0-6.804,5.517-12.315,12.317-12.315
		c0.558,0,1.103,0.05,1.639,0.12c0-22.432,0-25.867,0-25.867L93.669,0.316L0.263,22.747c0,0.215,0,2.738,0,25.867
		c0.539-0.07,1.085-0.12,1.643-0.12c6.8,0,12.315,5.511,12.315,12.315c0,6.801-5.515,12.315-12.315,12.315
		c-0.432,0-0.856-0.024-1.277-0.066c6.232,130.235,93.04,149.229,93.04,149.229s90.571-11.646,96.731-149.234
		C189.971,73.099,189.538,73.124,189.098,73.124z"/>
	<path fill="#4285F4" d="M93.539,222.287c0,0,90.7-11.663,96.869-149.446c-0.429,0.046-0.863,0.071-1.303,0.071
		c-6.81,0-12.334-5.521-12.334-12.332c0-1.547,0.297-3.021,0.818-4.386L18.105,152.398
		C45.292,211.715,93.539,222.287,93.539,222.287z"/>
</g>
<g id="Ebene_2">
	<g>
		<rect x="53.085" y="105.878" fill="#FFFFFF" width="15.475" height="20.522"/>
		<rect x="74.951" y="91.411" fill="#FFFFFF" width="15.475" height="34.989"/>
		<rect x="96.82" y="101.169" fill="#FFFFFF" width="15.475" height="25.231"/>
		<rect x="118.35" y="73.246" fill="#FFFFFF" width="15.476" height="53.154"/>
		<polygon fill="#FFFFFF" points="127.095,66.776 131.48,37.969 103.44,44.763 110.73,51.986 93.564,69.552 81.853,57.95 
			50.721,89.38 59.922,98.495 82.414,75.789 94.366,87.628 120.882,60.859 		"/>
	</g>
	<g>
		<g>
			<g>
				<g enable-background="new    ">
					<g enable-background="new    ">
						<defs>
							<path id="SVGID_1_" enable-background="new    " d="M105.379,163.583c0.011-0.018,0.016-0.034,0.026-0.047"/>
						</defs>
						<use xlink:href="#SVGID_1_"  overflow="visible" fill="#FFFFFF"/>
						<clipPath id="SVGID_2_">
							<use xlink:href="#SVGID_1_"  overflow="visible"/>
						</clipPath>
						<g clip-path="url(#SVGID_2_)" enable-background="new    ">
							<path fill="#FFFFFF" d="M105.379,163.583c0.011-0.018,0.016-0.034,0.026-0.047"/>
							<line fill="#FFFFFF" x1="105.405" y1="163.536" x2="105.062" y2="164.277"/>
						</g>
					</g>
					<g enable-background="new    ">
						<g enable-background="new    ">
							<path fill="#FFFFFF" d="M99.68,164.477"/>
						</g>
					</g>
					<g>
						<path fill="#FFFFFF" d="M66.708,152.396l57.128-8.034l13.673,23.694l-64.52,9.005L66.708,152.396z M104.537,168.508
							c5.19-0.73,7.709-5.034,5.611-9.606c-2.109-4.576-8.042-7.696-13.237-6.964c-5.205,0.727-7.72,5.034-5.616,9.611
							C93.399,166.123,99.327,169.238,104.537,168.508"/>
					</g>
				</g>
			</g>
			<g>
				<g enable-background="new    ">
					<g>
						<g>
							<polygon fill="#FFFFFF" points="68.698,184.988 62.324,159.926 63.201,159.705 69.378,183.975 133.494,175.025 
								133.623,175.926 							"/>
						</g>
					</g>
				</g>
			</g>
			<g>
				<g enable-background="new    ">
					<g>
						<g>
							<polygon fill="#FFFFFF" points="70.412,180.716 64.032,155.658 64.911,155.43 71.082,179.708 135.202,170.752 
								135.322,171.651 							"/>
						</g>
					</g>
				</g>
			</g>
			<g>
				<g enable-background="new    ">
					<g>
						<path fill="#FFFFFF" d="M60.822,163.697"/>
					</g>
				</g>
			</g>
		</g>
		<g>
			<path fill="#FFFFFF" d="M101.709,154.946l0.323,1.767c-0.548-0.22-1.209-0.221-1.971-0.001s-1.277,0.629-1.544,1.23
				c-0.148,0.342-0.192,0.722-0.128,1.148l3.867-1.114l0.188,0.988l-3.785,1.09c0.036,0.091,0.087,0.21,0.152,0.354
				c0.062,0.139,0.133,0.283,0.209,0.432l3.579-1.031l0.188,0.989l-3.209,0.924c0.308,0.39,0.64,0.671,0.99,0.841
				c0.679,0.337,1.392,0.393,2.144,0.176c0.896-0.258,1.512-0.697,1.837-1.323l0.816,1.827c-0.498,0.433-1.15,0.766-1.959,0.999
				c-1.368,0.394-2.674,0.322-3.908-0.219c-0.842-0.367-1.538-0.927-2.09-1.677l-1.04,0.299l-0.192-0.988l0.691-0.199
				c-0.05-0.095-0.095-0.195-0.144-0.303c-0.082-0.184-0.148-0.345-0.202-0.487l-0.919,0.265l-0.192-0.987l0.84-0.242
				c-0.156-0.846-0.061-1.62,0.289-2.322c0.525-1.057,1.512-1.794,2.956-2.21C100.281,154.946,101.022,154.87,101.709,154.946z"/>
		</g>
	</g>
</g>
</svg>
