<?xml version="1.0" encoding="utf-8"?>
<!-- Generator: Adobe Illustrator 19.1.0, SVG Export Plug-In . SVG Version: 6.00 Build 0)  -->
<svg version="1.1" id="Ebene_1" xmlns="http://www.w3.org/2000/svg" xmlns:xlink="http://www.w3.org/1999/xlink" x="0px" y="0px"
	 viewBox="0 0 191 222.287" enable-background="new 0 0 191 222.287" xml:space="preserve">
<path fill="#3061B1" d="M189.098,73.124c-6.8,0-12.317-5.513-12.317-12.315c0-6.804,5.517-12.315,12.317-12.315
	c0.558,0,1.103,0.05,1.639,0.12c0-22.432,0-25.867,0-25.867L93.669,0.316L0.263,22.747c0,0.215,0,2.738,0,25.867
	c0.539-0.07,1.085-0.12,1.643-0.12c6.8,0,12.315,5.511,12.315,12.315c0,6.801-5.515,12.315-12.315,12.315
	c-0.432,0-0.856-0.024-1.277-0.066c6.232,130.235,93.04,149.229,93.04,149.229s90.571-11.646,96.731-149.234
	C189.971,73.099,189.538,73.124,189.098,73.124z"/>
<path fill="#4285F4" d="M93.539,222.287c0,0,90.7-11.663,96.869-149.446c-0.429,0.046-0.863,0.071-1.303,0.071
	c-6.81,0-12.334-5.521-12.334-12.332c0-1.547,0.297-3.021,0.818-4.386L18.105,152.398C45.292,211.715,93.539,222.287,93.539,222.287
	z"/>
<g>
	<path fill="#FFFFFF" d="M97.149,150.822c-25.349,0-46-20.671-46-46.03c0-25.401,20.65-46.046,46-46.046
		c25.432,0,46.067,20.645,46.067,46.046C143.215,130.151,122.581,150.822,97.149,150.822z M97.149,66.894
		c-20.852,0-37.851,16.993-37.851,37.897c0,20.878,16.998,37.871,37.851,37.871c20.93,0,37.903-16.993,37.903-37.871
		C135.051,83.887,118.079,66.894,97.149,66.894z"/>
	<path fill="#FFFFFF" d="M104.105,41.97c0-3.807-3.082-6.919-6.956-6.919c-3.761,0-6.873,3.112-6.873,6.919v6.909h3.465v5.432h6.893
		v-5.432h3.471V41.97z"/>
	<path fill="#FFFFFF" d="M48.441,73.845c-4.299-8.466-1.825-18.974,6.245-24.395c8.082-5.431,18.804-3.761,24.998,3.424
		L48.441,73.845z"/>
	<path fill="#FFFFFF" d="M114.697,52.874c6.199-7.184,16.873-8.854,24.96-3.424c8.065,5.421,10.561,15.93,6.255,24.395
		L114.697,52.874z"/>
	<path fill="#FFFFFF" d="M70.814,159.464c-2.868,4.829-7.153,7.557-9.565,6.136c-2.417-1.442-2.049-6.519,0.83-11.313
		c2.853-4.835,7.148-7.563,9.545-6.121C74.056,149.598,73.682,154.681,70.814,159.464z"/>
	<path fill="#FFFFFF" d="M123.556,159.464c2.848,4.829,7.118,7.557,9.54,6.136c2.417-1.442,2.064-6.519-0.82-11.313
		c-2.874-4.835-7.147-7.563-9.564-6.121C120.32,149.598,120.673,154.681,123.556,159.464z"/>
	<rect x="94.353" y="69.674" fill="#FFFFFF" width="5.67" height="15.754"/>
	<rect x="62.078" y="101.949" fill="#FFFFFF" width="15.749" height="5.655"/>
	<rect x="94.353" y="124.14" fill="#FFFFFF" width="5.67" height="15.733"/>
	<rect x="116.544" y="101.949" fill="#FFFFFF" width="15.732" height="5.644"/>
	<path fill="#FFFFFF" d="M106.232,83.255l-9.954,18.865c-1.131,0.363-1.925,1.448-1.925,2.672c0,0.021,0.005,0.078,0.005,0.14
		l-18.555,21.682l21.268-19.021c0.047,0,0.072,0.011,0.078,0.011c1.623,0,2.874-1.24,2.874-2.812c0-0.441-0.14-0.876-0.311-1.224
		L106.232,83.255z"/>
</g>
</svg>
