<?xml version="1.0" encoding="utf-8"?>
<!-- Generator: Adobe Illustrator 19.1.0, SVG Export Plug-In . SVG Version: 6.00 Build 0)  -->
<svg version="1.1" xmlns="http://www.w3.org/2000/svg" xmlns:xlink="http://www.w3.org/1999/xlink" x="0px" y="0px"
	 viewBox="0 0 191 222.287" enable-background="new 0 0 191 222.287" xml:space="preserve">
<g id="Ebene_1">
	<path fill="#3061B1" d="M189.098,73.124c-6.8,0-12.317-5.513-12.317-12.315c0-6.804,5.517-12.315,12.317-12.315
		c0.558,0,1.103,0.05,1.639,0.12c0-22.432,0-25.867,0-25.867L93.669,0.316L0.263,22.747c0,0.215,0,2.738,0,25.867
		c0.539-0.07,1.085-0.12,1.643-0.12c6.8,0,12.315,5.511,12.315,12.315c0,6.801-5.515,12.315-12.315,12.315
		c-0.432,0-0.856-0.024-1.277-0.066c6.232,130.235,93.04,149.229,93.04,149.229s90.571-11.646,96.731-149.234
		C189.971,73.099,189.538,73.124,189.098,73.124z"/>
	<path fill="#4285F4" d="M93.539,222.287c0,0,90.7-11.663,96.869-149.446c-0.429,0.046-0.863,0.071-1.303,0.071
		c-6.81,0-12.334-5.521-12.334-12.332c0-1.547,0.297-3.021,0.818-4.386L18.105,152.398
		C45.292,211.715,93.539,222.287,93.539,222.287z"/>
</g>
<g id="Ebene_2">
	<g>
		<g>
			<path fill="#FFFFFF" d="M146.221,72.853c3.197-4.634-2.111-13.811-11.847-20.579c-9.74-6.778-20.226-8.492-23.409-3.879
				l16.215,11.254L112.42,80.933l1.405,0.98L128.586,60.6L146.221,72.853z"/>
			<path fill="#FFFFFF" d="M63.71,85.399l30.835,29.248l30.839-29.248H63.71z M69.803,87.839h3.884l20.858,23.449L69.803,87.839z"/>
			<path fill="#FFFFFF" d="M96.254,157.165V118.82h-3.419v38.346c-8.257,0.382-14.707,3.389-14.707,7.072
				c0,3.918,7.356,7.13,16.417,7.13c9.065,0,16.421-3.213,16.421-7.13C110.965,160.555,104.52,157.548,96.254,157.165z"/>
		</g>
		<g>
			<path fill="#FFFFFF" d="M78.622,80.003L67.221,52.167c-0.034-0.049-2.149-5.251-5.72-4.77
				c-5.152,0.685-15.799,4.701-15.906,4.721l-1.656-4.408c0.456-0.136,11.254-4.172,16.935-4.966
				c5.725-0.773,9.437,4.456,10.701,7.699L82.962,78.22L78.622,80.003z"/>
		</g>
		<path fill="#FFFFFF" d="M101.988,59.953c0,1.235-1.008,2.234-2.248,2.234c-1.249,0-2.263-0.999-2.263-2.234
			c0-1.263,1.014-2.263,2.263-2.263C100.98,57.69,101.988,58.69,101.988,59.953z"/>
		<path fill="#FFFFFF" d="M99.971,75.801c0,1.371-1.112,2.468-2.493,2.468c-1.371,0-2.497-1.097-2.497-2.468
			c0-1.391,1.126-2.497,2.497-2.497C98.858,73.303,99.971,74.41,99.971,75.801z"/>
		<path fill="#FFFFFF" d="M91.463,63.626c0,0.774-0.641,1.42-1.43,1.42c-0.783,0-1.42-0.646-1.42-1.42
			c0-0.793,0.637-1.439,1.42-1.439C90.823,62.186,91.463,62.832,91.463,63.626z"/>
		<path fill="#FFFFFF" d="M83.711,54.508c0,0.783-0.632,1.42-1.42,1.42c-0.793,0-1.435-0.637-1.435-1.42
			c0-0.764,0.642-1.43,1.435-1.43C83.08,53.077,83.711,53.743,83.711,54.508z"/>
	</g>
</g>
</svg>
