<?xml version="1.0" encoding="utf-8"?>
<!-- Generator: Adobe Illustrator 18.1.1, SVG Export Plug-In . SVG Version: 6.00 Build 0)  -->
<svg version="1.1" id="Layer_1" xmlns="http://www.w3.org/2000/svg" xmlns:xlink="http://www.w3.org/1999/xlink" x="0px" y="0px"
	 viewBox="0 0 144.872 49.654" enable-background="new 0 0 144.872 49.654" xml:space="preserve">
<rect x="0" y="0" fill="#FFFFFF" width="144.872" height="49.662"/>
<rect x="0.003" y="0.003" fill="#4285F4" width="49.614" height="49.661"/>
<g>
	<g>
		<path fill="#4285F4" d="M89.976,13.125c0.199-0.074,0.305-0.137,0.305-0.285c0-0.418-0.473-0.902-1.039-0.902
			c-0.422,0-1.209,0.328-1.209,1.461c0,0.18,0.023,0.367,0.033,0.557L89.976,13.125z M91.466,15.779l-0.502,0.475
			c-0.117,0.063-0.232,0.137-0.348,0.189c-0.346,0.158-0.703,0.199-1.02,0.199c-0.336,0-0.857-0.021-1.395-0.41
			c-0.746-0.523-1.072-1.428-1.072-2.215c0-1.627,1.324-2.426,2.406-2.426c0.377,0,0.766,0.092,1.08,0.291
			c0.525,0.348,0.662,0.799,0.736,1.041l-2.469,1l-0.811,0.063c0.266,1.334,1.168,2.111,2.166,2.111c0.498,0,0.869-0.164,1.207-0.33
			C91.446,15.768,91.515,15.731,91.466,15.779"/>
		<path fill="#4285F4" d="M86.304,15.697c0,0.41,0.072,0.473,0.42,0.504c0.178,0.021,0.355,0.031,0.533,0.053l-0.387,0.23h-1.854
			c0.242-0.314,0.285-0.348,0.285-0.557v-0.232L85.3,9.449h-0.818l0.787-0.379h1.502c-0.326,0.189-0.424,0.303-0.465,0.67
			L86.304,15.697z"/>
		<path fill="#4285F4" d="M82.991,14.773c0.242-0.244,0.264-0.578,0.264-0.768c0-0.756-0.451-1.932-1.324-1.932
			c-0.273,0-0.566,0.137-0.734,0.348c-0.178,0.221-0.23,0.502-0.23,0.775c0,0.705,0.41,1.871,1.311,1.871
			C82.542,15.068,82.825,14.941,82.991,14.773 M82.688,16.768c-0.086-0.012-0.137-0.012-0.242-0.012
			c-0.094,0-0.662,0.024-1.103,0.17c-0.231,0.084-0.902,0.336-0.902,1.082c0,0.746,0.725,1.281,1.85,1.281
			c1.006,0,1.543-0.483,1.543-1.135C83.833,17.619,83.485,17.336,82.688,16.768 M83.435,12.106c0.24,0.199,0.746,0.619,0.746,1.418
			c0,0.779-0.443,1.146-0.885,1.49c-0.135,0.137-0.293,0.285-0.293,0.516c0,0.231,0.158,0.357,0.275,0.451l0.375,0.295
			c0.463,0.389,0.883,0.744,0.883,1.471c0,0.986-0.955,1.984-2.762,1.984c-1.523,0-2.258-0.725-2.258-1.502
			c0-0.377,0.189-0.914,0.809-1.279c0.65-0.4,1.533-0.453,2.004-0.486c-0.145-0.188-0.314-0.387-0.314-0.713
			c0-0.18,0.053-0.285,0.106-0.41c-0.117,0.012-0.231,0.022-0.336,0.022c-1.113,0-1.742-0.832-1.742-1.65
			c0-0.48,0.221-1.018,0.672-1.406c0.598-0.492,1.314-0.576,1.879-0.576h2.164l-0.672,0.377H83.435z"/>
		<path fill="#4285F4" d="M78.237,15.769c0.25-0.336,0.313-0.756,0.313-1.164c0-0.926-0.441-2.688-1.742-2.688
			c-0.348,0-0.695,0.135-0.945,0.355c-0.41,0.369-0.482,0.83-0.482,1.283c0,1.039,0.514,2.75,1.783,2.75
			C77.573,16.307,77.993,16.107,78.237,15.769 M76.923,16.621c-1.67,0-2.563-1.301-2.563-2.478c0-1.375,1.125-2.551,2.719-2.551
			c1.545,0,2.512,1.207,2.512,2.479C79.591,15.309,78.636,16.621,76.923,16.621"/>
		<path fill="#4285F4" d="M72.648,15.769c0.254-0.336,0.316-0.756,0.316-1.164c0-0.926-0.441-2.688-1.744-2.688
			c-0.346,0-0.691,0.135-0.943,0.355c-0.41,0.369-0.484,0.83-0.484,1.283c0,1.039,0.516,2.75,1.785,2.75
			C71.988,16.307,72.408,16.107,72.648,15.769 M71.335,16.621c-1.668,0-2.563-1.301-2.563-2.478c0-1.375,1.125-2.551,2.721-2.551
			c1.543,0,2.51,1.207,2.51,2.479C74.004,15.309,73.048,16.621,71.335,16.621"/>
		<path fill="#4285F4" d="M68.105,16.256l-1.406,0.326c-0.572,0.086-1.084,0.166-1.625,0.166c-2.716,0-3.75-2-3.75-3.564
			c0-1.91,1.467-3.68,3.976-3.68c0.531,0,1.045,0.076,1.506,0.203c0.738,0.207,1.084,0.465,1.299,0.611l-0.814,0.777l-0.346,0.08
			l0.246-0.395c-0.334-0.326-0.945-0.926-2.108-0.926c-1.555,0-2.726,1.182-2.726,2.904c0,1.852,1.339,3.594,3.484,3.594
			c0.631,0,0.957-0.129,1.25-0.246v-1.584l-1.486,0.078l0.787-0.424h2.088l-0.256,0.246c-0.068,0.059-0.078,0.078-0.1,0.158
			c-0.008,0.088-0.02,0.373-0.02,0.473V16.256z"/>
	</g>
	<polygon fill="#4285F4" points="91.659,11.658 91.659,11.727 91.872,11.727 91.872,12.369 91.952,12.369 91.952,11.727 
		92.165,11.727 92.165,11.658 	"/>
	<polygon fill="#4285F4" points="92.829,12.369 92.829,11.719 92.825,11.719 92.626,12.369 92.565,12.369 92.364,11.719 
		92.362,11.719 92.362,12.369 92.292,12.369 92.292,11.658 92.411,11.658 92.595,12.234 92.597,12.234 92.774,11.658 92.899,11.658 
		92.899,12.369 	"/>
</g>
<g>
	<path fill="#737373" d="M87.261,25.442c-0.598,0.383-1.158,1.044-1.686,1.985h-0.082l-0.117-2.309h-0.99v12.803h1.166v-7.066
		c0-1.413,0.35-2.582,1.049-3.511c0.699-0.927,1.594-1.388,2.686-1.388c0.574,0,1.127,0.065,1.66,0.199l0.225-1.121
		c-0.621-0.108-1.203-0.163-1.742-0.163C88.579,24.872,87.856,25.063,87.261,25.442z M95.849,36.414
		c-0.346-0.471-0.516-1.197-0.516-2.178v-8.104h3.756v-1.014h-3.756v-3.098h-0.602l-0.59,2.897l-1.896,0.531v0.683h1.896V34.4
		c0,1.296,0.27,2.246,0.809,2.85c0.535,0.605,1.373,0.909,2.502,0.909c0.738,0,1.391-0.096,1.955-0.284v-0.941
		c-0.549,0.125-1.193,0.188-1.932,0.188C96.737,37.122,96.194,36.887,95.849,36.414z M77.265,24.895
		c-1.059,0-2.129,0.201-3.205,0.595l0.418,0.976c0.938-0.371,1.852-0.555,2.742-0.555c1.098,0,1.894,0.308,2.389,0.928
		c0.496,0.621,0.742,1.539,0.742,2.758v0.848l-2.438,0.071c-1.971,0.039-3.475,0.404-4.517,1.096
		c-1.039,0.69-1.561,1.66-1.561,2.908c0,1.14,0.35,2.03,1.047,2.675c0.701,0.643,1.679,0.966,2.935,0.966
		c0.926,0,1.729-0.171,2.408-0.514c0.68-0.341,1.34-0.925,1.984-1.747h0.094l0.297,2.024h0.857v-8.514
		c0-1.549-0.348-2.688-1.043-3.417C79.722,25.26,78.671,24.895,77.265,24.895z M80.304,32.669c0,1.391-0.393,2.478-1.184,3.258
		c-0.789,0.781-1.867,1.173-3.233,1.173c-0.895,0-1.59-0.224-2.08-0.665c-0.488-0.444-0.736-1.066-0.736-1.868
		c0-1.007,0.385-1.746,1.15-2.222c0.766-0.476,2.047-0.754,3.846-0.842l2.236-0.094V32.669z M107.233,24.872
		c-2.129,0-3.609,0.667-4.441,2.001h-0.068l-0.225-1.754h-0.99v12.803h1.166v-7.066c0-1.736,0.355-2.99,1.068-3.764
		c0.711-0.774,1.83-1.159,3.363-1.159c1.135,0,1.977,0.292,2.52,0.876c0.541,0.586,0.813,1.523,0.813,2.811v8.303h1.154v-8.373
		C111.593,26.432,110.14,24.872,107.233,24.872z M132.583,24.872c-0.848,0-1.572,0.19-2.168,0.57c-0.6,0.383-1.16,1.044-1.684,1.985
		h-0.084l-0.117-2.309h-0.99v12.803h1.166v-7.066c0-1.413,0.35-2.582,1.049-3.511c0.697-0.927,1.596-1.388,2.686-1.388
		c0.572,0,1.639,0.065,2.172,0.199l0.223-1.121C134.214,24.927,133.124,24.872,132.583,24.872z M119.735,24.872
		c-1.701,0-3.057,0.615-4.061,1.844c-1.008,1.229-1.51,2.864-1.51,4.905c0,2.064,0.521,3.67,1.56,4.818
		c1.041,1.145,2.492,1.72,4.354,1.72c0.738,0,1.414-0.058,2.025-0.171c0.615-0.114,1.279-0.329,2.002-0.643v-1.06
		c-0.848,0.338-1.549,0.557-2.104,0.659c-0.553,0.102-1.193,0.152-1.924,0.152c-1.5,0-2.654-0.462-3.459-1.39
		c-0.805-0.927-1.215-2.269-1.23-4.028h9.223v-0.943c0-1.804-0.433-3.233-1.307-4.287C122.435,25.398,121.245,24.872,119.735,24.872
		z M115.46,30.643c0.127-1.529,0.563-2.704,1.309-3.516c0.746-0.812,1.734-1.217,2.967-1.217c1.141,0,2.031,0.415,2.676,1.252
		c0.643,0.837,0.963,1.996,0.963,3.48H115.46z"/>
	<g>
		<path fill="#737373" d="M71.99,25.641c0,1.664-0.565,2.939-1.695,3.827c-1.131,0.888-2.732,1.33-4.807,1.33h-2.66v7.113h-1.201
			V20.695h4.214C69.941,20.695,71.99,22.343,71.99,25.641z M62.828,29.762h2.367c1.939,0,3.34-0.319,4.205-0.959
			c0.863-0.64,1.295-1.679,1.295-3.114c0-1.328-0.408-2.312-1.225-2.95c-0.816-0.641-2.082-0.96-3.793-0.96h-2.849V29.762z"/>
	</g>
</g>
<path fill="#FFFFFF" d="M12.548,49.654c-0.313-0.795-0.477-1.652-0.477-2.559c0-4.789,4.346-6.424,5.822-6.959
	c2.829-0.941,6.493-1.098,7.121-1.098c0.661,0,0.994,0,1.555,0.055c5.119,3.678,7.367,5.514,7.367,8.955
	c0,0.557-0.063,1.092-0.184,1.605h3.783c0.617-1.363,0.945-2.795,0.945-4.227c0-4.701-2.703-6.988-5.681-9.502l-2.452-1.898
	c-0.739-0.615-1.748-1.436-1.748-2.912c0-1.486,1.009-2.418,1.885-3.334c2.823-2.203,5.669-4.578,5.669-9.576
	c0-5.154-3.259-7.859-4.812-9.17h4.218l4.348-2.438H25.941c-3.65,0-8.264,0.567-12.129,3.748c-2.906,2.484-4.309,5.945-4.309,9.09
	c0,5.262,4.063,10.608,11.22,10.608c0.683,0,1.422-0.064,2.179-0.127c-0.346,0.801-0.68,1.484-0.68,2.627
	c0,2.078,1.059,3.383,2.031,4.613c-3.054,0.221-8.75,0.531-12.91,3.119C7.333,42.65,6.1,46.074,6.1,48.537
	c0,0.375,0.036,0.748,0.091,1.117H12.548z M23.919,28.16c-5.828,0-8.469-7.516-8.469-12.051c0-1.781,0.349-3.584,1.499-5.008
	c1.092-1.395,2.981-2.262,4.741-2.262c5.607,0,8.499,7.609,8.499,12.465c0,1.236-0.099,3.393-1.687,4.941
	C27.436,27.357,25.601,28.16,23.919,28.16z"/>
<path fill="#BABABA" d="M39.919,6.602C39.86,6.634,39.8,6.66,39.741,6.691L35.56,9.035h-4.218c1.554,1.311,4.812,4.016,4.812,9.17
	c0,4.998-2.846,7.373-5.669,9.576c-0.876,0.916-1.885,1.848-1.885,3.334c0,1.477,1.009,2.297,1.748,2.912l2.452,1.898
	c2.978,2.514,5.681,4.801,5.681,9.502c0,1.432-0.328,2.863-0.945,4.227h-3.783c0.121-0.514,0.184-1.049,0.184-1.605
	c0-3.441-2.248-5.277-7.367-8.955c-0.561-0.055-0.894-0.055-1.555-0.055c-0.628,0-4.292,0.156-7.121,1.098
	c-1.477,0.535-5.822,2.17-5.822,6.959c0,0.906,0.163,1.764,0.477,2.559H8.522c0,0.001,0,0.002,0,0.004l41.096-0.003V16.3
	L39.919,6.602z M23.919,28.16c1.682,0,3.517-0.803,4.584-1.914c1.588-1.549,1.687-3.705,1.687-4.941
	c0-4.856-2.892-12.465-8.499-12.465c-1.76,0-3.649,0.867-4.741,2.262c-1.15,1.424-1.499,3.227-1.499,5.008
	C15.45,20.645,18.091,28.16,23.919,28.16z"/>
</svg>
