<?xml version="1.0" encoding="utf-8"?>
<!-- Generator: Adobe Illustrator 19.1.0, SVG Export Plug-In . SVG Version: 6.00 Build 0)  -->
<svg version="1.1" xmlns="http://www.w3.org/2000/svg" xmlns:xlink="http://www.w3.org/1999/xlink" x="0px" y="0px"
	 viewBox="0 0 191 222.287" enable-background="new 0 0 191 222.287" xml:space="preserve">
<g id="Ebene_1">
	<path fill="#3061B1" d="M189.098,73.124c-6.8,0-12.317-5.513-12.317-12.315c0-6.804,5.517-12.315,12.317-12.315
		c0.558,0,1.103,0.05,1.639,0.12c0-22.432,0-25.867,0-25.867L93.669,0.316L0.263,22.747c0,0.215,0,2.738,0,25.867
		c0.539-0.07,1.085-0.12,1.643-0.12c6.8,0,12.315,5.511,12.315,12.315c0,6.801-5.515,12.315-12.315,12.315
		c-0.432,0-0.856-0.024-1.277-0.066c6.232,130.235,93.04,149.229,93.04,149.229s90.571-11.646,96.731-149.234
		C189.971,73.099,189.538,73.124,189.098,73.124z"/>
	<path fill="#4285F4" d="M93.539,222.287c0,0,90.7-11.663,96.869-149.446c-0.429,0.046-0.863,0.071-1.303,0.071
		c-6.81,0-12.334-5.521-12.334-12.332c0-1.547,0.297-3.021,0.818-4.386L18.105,152.398
		C45.292,211.715,93.539,222.287,93.539,222.287z"/>
</g>
<g id="Ebene_2">
	<g>
		<path fill="#FFFFFF" d="M89.865,63.848c0,8.602-6.871,15.577-15.322,15.577c-8.467,0-15.332-6.975-15.332-15.577
			c0-8.601,6.864-15.57,15.332-15.57C82.993,48.278,89.865,55.247,89.865,63.848z"/>
		<g>
			<path fill="#FFFFFF" d="M116.464,83.375c19.945,0,26.186,17.216,26.186,38.722c0,2.032-1.988,4.282-3.749,4.282h-22.437h-11.979
				c0.671-2.25,0.748-4.198,0.748-6.827c0-3.461-0.372-6.958-0.835-10.349c-0.875-6.519-2.558-12.971-5.63-18.564
				C102.836,86.081,108.573,83.375,116.464,83.375L116.464,83.375z"/>
			<path fill="#FFFFFF" d="M74.543,83.375c19.933,0,26.181,17.216,26.181,38.722c0,2.032-1.975,4.305-3.759,4.305H74.543H52.095
				c-1.761,0-3.746-2.273-3.746-4.305C48.349,100.591,54.6,83.375,74.543,83.375z"/>
			<path fill="#FFFFFF" d="M131.374,63.848c0,8.602-6.865,15.577-15.322,15.577c-8.474,0-15.328-6.975-15.328-15.577
				c0-8.601,6.854-15.57,15.328-15.57C124.509,48.278,131.374,55.247,131.374,63.848z"/>
		</g>
	</g>
	<g>
		<g>
			<path fill="#FFFFFF" d="M99.395,143.504c-3.082-0.487-5.676-0.648-7.622,4.378c-1.944,5.025-3.729,7.943-3.729,7.943
				s-1.135,3.406,1.137,4.702c2.269,1.3,5.674-1.944,6.323-3.889c0,0,0.973-3.729,3.241-3.245c2.271,0.487,5.533,4.54,5.533,4.54
				l8.576,9.405l7.944-9.082l-11.35-11.512C109.447,146.748,102.474,143.991,99.395,143.504z"/>
		</g>
		<g>
			<path fill="#FFFFFF" d="M84.379,167.912c1.077-1.074,1.087-2.812,0.022-3.876c-1.065-1.063-2.801-1.054-3.876,0.021l-3.555,3.556
				c-1.077,1.077-1.087,2.812-0.022,3.877c1.065,1.065,2.799,1.055,3.877-0.024L84.379,167.912z"/>
		</g>
		<g>
			<path fill="#FFFFFF" d="M88.773,172.625c1.075-1.077,1.084-2.812,0.021-3.876c-1.065-1.065-2.798-1.054-3.878,0.021l-3.552,3.556
				c-1.078,1.077-1.089,2.812-0.022,3.878c1.065,1.065,2.799,1.055,3.877-0.021L88.773,172.625z"/>
		</g>
		<g>
			<path fill="#FFFFFF" d="M93.177,177.213c1.076-1.077,1.085-2.812,0.021-3.878c-1.065-1.065-2.801-1.054-3.876,0.023l-3.553,3.556
				c-1.078,1.076-1.089,2.81-0.023,3.876c1.064,1.065,2.799,1.057,3.877-0.021L93.177,177.213z"/>
		</g>
		<g>
			<path fill="#FFFFFF" d="M93.75,177.789l-3.555,3.553c-1.076,1.078-1.086,2.813-0.022,3.879c1.065,1.065,2.799,1.054,3.877-0.023
				l3.556-3.555c1.077-1.078,1.084-2.812,0.021-3.876C96.562,176.703,94.827,176.713,93.75,177.789z"/>
		</g>
		<g>
			<path fill="#FFFFFF" d="M78.039,163.281c0.326,0,0.65-0.122,0.901-0.365c0.516-0.5,0.531-1.32,0.031-1.835l-9.567-9.89
				c-0.5-0.514-1.32-0.53-1.833-0.03c-0.515,0.498-0.53,1.319-0.031,1.833l9.567,9.891C77.361,163.148,77.7,163.281,78.039,163.281z
				"/>
		</g>
		<g>
			<path fill="#FFFFFF" d="M114.638,169.8c-1.31,1.31-2.486,1.378-3.164,1.258c-0.41-0.316-1.461-1.225-1.997-1.687
				c-0.949-0.822-1.771-1.533-2.627-0.573c-0.852,0.954,0.009,1.762,0.642,2.351c0.404,0.377,1.053,0.979,2.015,1.866
				c0.012,0.013,0.077,0.073,0.167,0.173c0.365,0.399,1.151,1.39,0.586,1.952c-0.191,0.193-0.646,0.647-1.615,0.149
				c-0.171-0.087-0.295-0.174-0.344-0.211l-2.501-2.403c-0.097-0.093-0.21-0.202-0.337-0.308c-0.047-0.048-0.075-0.075-0.086-0.086
				l-0.009,0.009c-0.509-0.405-1.193-0.725-1.873-0.027c-0.655,0.676-0.41,1.275,0.093,1.865l-0.01,0.013
				c0.021,0.02,0.074,0.07,0.149,0.141c0.155,0.171,0.332,0.342,0.509,0.514c0.513,0.502,1.337,1.304,2.561,2.49
				c0.081,0.117,0.186,0.625-0.395,1.424c-0.832,1.142-1.522,0.92-1.751,0.847c-0.034-0.012-0.066-0.023-0.092-0.034l-2.076-2.126
				c-0.114-0.116-0.228-0.232-0.345-0.345c-0.138-0.143-0.23-0.238-0.256-0.265l-0.019,0.018c-0.558-0.468-1.169-0.719-1.839-0.068
				c-0.67,0.65-0.459,1.245,0.017,1.84l-0.018,0.017c0.023,0.027,0.11,0.114,0.276,0.283c0.119,0.131,0.245,0.262,0.374,0.393
				c0.663,0.685,2.002,2.071,2.27,2.361c0.806,1.187,0.231,1.76,0.041,1.951c-1.046,1.047-2.414,0.431-2.575,0.355
				c-0.637-0.318-1.411-0.064-1.737,0.569c-0.326,0.638-0.074,1.419,0.564,1.745c0.543,0.279,1.374,0.534,2.299,0.534
				c1.064,0,2.253-0.337,3.285-1.367c0.919-0.918,1.283-2.091,1.079-3.303c0.823-0.192,1.753-0.712,2.599-1.881
				c0.534-0.733,0.819-1.453,0.919-2.118c0.988,0.037,1.913-0.373,2.681-1.14c0.929-0.93,1.192-2.123,0.804-3.372
				c1.058-0.185,2.318-0.714,3.574-1.971c0.505-0.507,0.505-1.328,0-1.834C115.966,169.294,115.144,169.294,114.638,169.8z"/>
		</g>
		<g>
			<path fill="#FFFFFF" d="M125.343,149.864l-9.675-10.301c-0.794-0.84-2.282-0.729-3.325,0.254l-1.181,1.111
				c-1.045,0.978-1.247,2.46-0.456,3.302l9.675,10.296c0.792,0.844,2.282,0.73,3.326-0.252l1.18-1.109
				C125.931,152.184,126.134,150.703,125.343,149.864z"/>
		</g>
	</g>
</g>
</svg>
