<?xml version="1.0" encoding="utf-8"?>
<!-- Generator: Adobe Illustrator 19.1.0, SVG Export Plug-In . SVG Version: 6.00 Build 0)  -->
<svg version="1.1" xmlns="http://www.w3.org/2000/svg" xmlns:xlink="http://www.w3.org/1999/xlink" x="0px" y="0px"
	 viewBox="0 0 191 222.287" enable-background="new 0 0 191 222.287" xml:space="preserve">
<g id="Ebene_1">
	<path fill="#3061B1" d="M189.098,73.124c-6.8,0-12.317-5.513-12.317-12.315c0-6.804,5.517-12.315,12.317-12.315
		c0.558,0,1.103,0.05,1.639,0.12c0-22.432,0-25.867,0-25.867L93.669,0.316L0.263,22.747c0,0.215,0,2.738,0,25.867
		c0.539-0.07,1.085-0.12,1.643-0.12c6.8,0,12.315,5.511,12.315,12.315c0,6.801-5.515,12.315-12.315,12.315
		c-0.432,0-0.856-0.024-1.277-0.066c6.232,130.235,93.04,149.229,93.04,149.229s90.571-11.646,96.731-149.234
		C189.971,73.099,189.538,73.124,189.098,73.124z"/>
	<path fill="#4285F4" d="M93.539,222.287c0,0,90.7-11.663,96.869-149.446c-0.429,0.046-0.863,0.071-1.303,0.071
		c-6.81,0-12.334-5.521-12.334-12.332c0-1.547,0.297-3.021,0.818-4.386L18.105,152.398
		C45.292,211.715,93.539,222.287,93.539,222.287z"/>
</g>
<g id="Ebene_2">
	<g>
		<polygon fill="#FFFFFF" points="112.057,57.544 118.908,114.174 141.031,114.174 147.886,57.544 		"/>
		<rect x="109.662" y="52.793" fill="#FFFFFF" width="40.618" height="3.047"/>
		<polygon fill="#FFFFFF" points="131.173,55.715 128.769,55.242 133.214,32.245 145.475,28.787 146.145,31.141 135.33,34.207 		"/>
	</g>
	<path fill-rule="evenodd" clip-rule="evenodd" fill="#FFFFFF" d="M96.834,61.169c-1.896,0.796-64.464,25.214-66.556,25.984
		C43.446,131.115,118.701,102.775,96.834,61.169z M86.58,71.62c0.687,0.377,1.028,1.694,0.367,2.335
		c-0.635,0.62-3.874,0.543-4.401-0.331C82.174,72.979,85.258,70.933,86.58,71.62z M81.167,79.911
		c0.625-0.692,4.035,0.217,4.69,1.111c0.806,1.106-0.362,2.495-1.126,2.201C83.47,82.716,80.825,80.604,81.167,79.911z
		 M75.836,85.826c0.32-1.131,3.662,1.71,3.394,3.234c-0.16,0.811-1.493,1.509-2.232,0.945
		C76.006,89.277,75.716,86.234,75.836,85.826z M64.631,88.688c0.749-0.393,2.712,3.476,1.715,4.866
		c-0.506,0.734-2.356,0.832-2.634,0C63.313,92.294,64.285,89.21,64.631,88.688z M52.997,92.64c0.134-1.565,1.751-3.761,2.381-4.613
		c0.893-0.46,1.663,3.234,0.775,4.432C55.239,93.683,52.92,93.699,52.997,92.64z M43.296,87.345c1.39-1.787,4.954-3.208,5.682-2.309
		c0.542,0.697-2.175,4.427-4.158,4.293C43.988,89.277,42.795,88.011,43.296,87.345z M38.244,88.399
		c3.549,8.188,11.365,12.042,19.47,12.739c2.805,0.248,5.646-0.295,8.188-0.46c0.543-0.026,2.092-0.15,2.712,0.103
		c0.806,0.336,0.506,1.137-1.235,1.55c-12.491,3.032-26.165-1.033-32.008-13.054C33.723,85.914,37.309,85.558,38.244,88.399z
		 M76.45,105.678c-17.311,6.618-38.842,2.95-45.165-18.204l1.694-0.63l1.111,3.073c14.237,33.113,75.529,10.006,62.135-24.109
		l-1.447-3.099l1.483-0.599C106.83,82.128,93.745,99.056,76.45,105.678z"/>
	<g>
		<path fill="#FFFFFF" d="M117.36,134.243c-5.818,0-10.903,3.098-13.735,7.725H87.372c-2.827-4.627-7.911-7.725-13.732-7.725
			c-8.895,0-16.103,7.208-16.103,16.097c0,8.895,7.208,16.103,16.103,16.103c5.821,0,10.906-3.098,13.732-7.727h16.253
			c2.832,4.629,7.917,7.727,13.735,7.727c8.893,0,16.103-7.208,16.103-16.103C133.464,141.451,126.253,134.243,117.36,134.243z
			 M69.876,138.836h7.563v5.791l-3.784,3.62l-3.779-3.62V138.836z M62.149,154.126v-7.563h5.792l3.62,3.778l-3.62,3.785H62.149z
			 M77.439,161.85h-7.563v-5.795l3.779-3.62l3.784,3.62V161.85z M85.166,154.126h-5.795l-3.617-3.785l3.617-3.778h5.795V154.126z
			 M109.319,153.932c-1.982,0-3.586-1.603-3.586-3.591c0-1.981,1.604-3.591,3.586-3.591c1.981,0,3.591,1.61,3.591,3.591
			C112.91,152.329,111.3,153.932,109.319,153.932z M117.654,162.265c-1.982,0-3.591-1.601-3.591-3.585
			c0-1.979,1.609-3.594,3.591-3.594c1.987,0,3.591,1.615,3.591,3.594C121.245,160.664,119.642,162.265,117.654,162.265z
			 M117.652,145.596c-1.979,0-3.588-1.607-3.588-3.591c0-1.982,1.609-3.585,3.588-3.585c1.99,0,3.594,1.603,3.594,3.585
			C121.245,143.99,119.642,145.596,117.652,145.596z M125.993,153.932c-1.984,0-3.594-1.603-3.594-3.591
			c0-1.981,1.61-3.591,3.594-3.591c1.982,0,3.585,1.61,3.585,3.591C129.578,152.329,127.975,153.932,125.993,153.932z"/>
		<path fill="#FFFFFF" d="M103.25,115.701c-0.36-0.747-1.468-0.098-1.111,0.649c1.267,2.642,2.181,5.258,1.497,8.194
			c-0.649,2.804-3.317,4.474-5.385,6.184c-2.847,2.359-3.902,5.097-3.827,8.763c0.017,0.831,1.304,0.831,1.289,0
			c-0.057-2.757,0.465-4.921,2.42-6.925c1.532-1.57,3.606-2.619,4.944-4.367C106.135,124.192,105.301,119.987,103.25,115.701z"/>
	</g>
</g>
</svg>
