<?xml version="1.0" encoding="utf-8"?>
<!-- Generator: Adobe Illustrator 19.1.0, SVG Export Plug-In . SVG Version: 6.00 Build 0)  -->
<svg version="1.1" xmlns="http://www.w3.org/2000/svg" xmlns:xlink="http://www.w3.org/1999/xlink" x="0px" y="0px"
	 viewBox="0 0 191 222.287" enable-background="new 0 0 191 222.287" xml:space="preserve">
<g id="Ebene_1">
	<path fill="#3061B1" d="M189.098,73.124c-6.8,0-12.317-5.513-12.317-12.315c0-6.804,5.517-12.315,12.317-12.315
		c0.558,0,1.103,0.05,1.639,0.12c0-22.432,0-25.867,0-25.867L93.669,0.316L0.263,22.747c0,0.215,0,2.738,0,25.867
		c0.539-0.07,1.085-0.12,1.643-0.12c6.8,0,12.315,5.511,12.315,12.315c0,6.801-5.515,12.315-12.315,12.315
		c-0.432,0-0.856-0.024-1.277-0.066c6.232,130.235,93.04,149.229,93.04,149.229s90.571-11.646,96.731-149.234
		C189.971,73.099,189.538,73.124,189.098,73.124z"/>
	<path fill="#4285F4" d="M93.539,222.287c0,0,90.7-11.663,96.869-149.446c-0.429,0.046-0.863,0.071-1.303,0.071
		c-6.81,0-12.334-5.521-12.334-12.332c0-1.547,0.297-3.021,0.818-4.386L18.105,152.398
		C45.292,211.715,93.539,222.287,93.539,222.287z"/>
</g>
<g id="Ebene_2">
	<g>
		<rect x="51.711" y="56.074" fill="#FFFFFF" width="90.5" height="7.406"/>
		<polygon fill="#FFFFFF" points="112.342,165.578 98.601,148.895 98.601,122.031 95.315,122.031 95.315,148.9 81.579,165.578 
			84.418,166.737 95.315,153.505 95.315,166.737 98.601,166.737 98.601,153.505 109.498,166.737 		"/>
		<path fill="#FFFFFF" d="M51.711,67.249v49.635h90.5V67.249H51.711z M63.375,112.646h-2.661V72.564h2.661V112.646z
			 M123.008,112.415H73.334v-2.655h49.674V112.415z M124.015,91.231l-5.496-6.027l-19.828,19.01L87.559,93.646l-17.654,16.198
			l-3.63-3.254l21.284-19.951l11.132,10.562l16.41-15.732l-6.568-7.195h15.483V91.231z"/>
	</g>
</g>
</svg>
