<?xml version="1.0" encoding="utf-8"?>
<!-- Generator: Adobe Illustrator 19.1.0, SVG Export Plug-In . SVG Version: 6.00 Build 0)  -->
<svg version="1.1" xmlns="http://www.w3.org/2000/svg" xmlns:xlink="http://www.w3.org/1999/xlink" x="0px" y="0px"
	 viewBox="0 0 191 222.287" enable-background="new 0 0 191 222.287" xml:space="preserve">
<g id="Ebene_1">
	<path fill="#3061B1" d="M189.098,73.124c-6.8,0-12.317-5.513-12.317-12.315c0-6.804,5.517-12.315,12.317-12.315
		c0.558,0,1.103,0.05,1.639,0.12c0-22.432,0-25.867,0-25.867L93.669,0.316L0.263,22.747c0,0.215,0,2.738,0,25.867
		c0.539-0.07,1.085-0.12,1.643-0.12c6.8,0,12.315,5.511,12.315,12.315c0,6.801-5.515,12.315-12.315,12.315
		c-0.432,0-0.856-0.024-1.277-0.066c6.232,130.235,93.04,149.229,93.04,149.229s90.571-11.646,96.731-149.234
		C189.971,73.099,189.538,73.124,189.098,73.124z"/>
	<path fill="#4285F4" d="M93.539,222.287c0,0,90.7-11.663,96.869-149.446c-0.429,0.046-0.863,0.071-1.303,0.071
		c-6.81,0-12.334-5.521-12.334-12.332c0-1.547,0.297-3.021,0.818-4.386L18.105,152.398
		C45.292,211.715,93.539,222.287,93.539,222.287z"/>
</g>
<g id="Ebene_2">
	<g>
		<path fill="#FFFFFF" d="M78.188,86.237c-1.109,0-1.951,0.399-2.526,1.198c-0.889,1.241-1.331,3.238-1.331,5.985
			c0,2.75,0.442,4.744,1.331,5.985c0.577,0.821,1.417,1.23,2.526,1.23c1.108,0,1.94-0.412,2.494-1.23
			c0.886-1.241,1.331-3.235,1.331-5.985c0-2.727-0.445-4.723-1.331-5.985C80.128,86.636,79.296,86.237,78.188,86.237z"/>
		<path fill="#FFFFFF" d="M113.302,112.573c-1.109,0-1.94,0.412-2.493,1.227c-0.888,1.241-1.329,3.238-1.329,5.987
			c0,2.746,0.441,4.743,1.329,5.984c0.554,0.798,1.384,1.197,2.493,1.197c1.11,0,1.953-0.398,2.527-1.197
			c0.887-1.241,1.331-3.237,1.331-5.984c0-2.749-0.444-4.756-1.331-6.017C115.252,112.972,114.41,112.573,113.302,112.573z"/>
		<path fill="#FFFFFF" d="M137.391,86.784V62.588h-24.194L96.091,45.479L78.982,62.588H54.79v24.196l-17.109,17.107l17.109,17.107
			v24.195h24.192L96.091,162.3l17.107-17.108h24.194v-24.195l17.109-17.107L137.391,86.784z M70.989,104.542
			c-2.028-1.098-3.536-2.664-4.52-4.704c-0.988-2.04-1.481-4.2-1.481-6.488c0-2.26,0.493-4.412,1.481-6.452
			c0.985-2.038,2.492-3.609,4.52-4.705c2.029-1.097,4.429-1.645,7.2-1.645c4.079,0,7.296,1.163,9.647,3.489
			c2.349,2.329,3.526,5.434,3.526,9.311c0,3.899-1.175,7.014-3.526,9.341c-2.35,2.328-5.567,3.491-9.647,3.491
			C75.418,106.189,73.018,105.641,70.989,104.542z M85.239,132.622h-6.952l28.089-52.071h7.029L85.239,132.622z M122.978,129.049
			c-2.35,2.338-5.577,3.509-9.679,3.509c-2.746,0-5.142-0.555-7.182-1.663s-3.545-2.677-4.52-4.706
			c-0.976-2.025-1.464-4.185-1.464-6.466c0-2.283,0.488-4.436,1.464-6.465c0.975-2.028,2.481-3.596,4.52-4.706
			c2.04-1.107,4.435-1.663,7.182-1.663c4.102,0,7.327,1.172,9.679,3.511c2.349,2.336,3.526,5.445,3.526,9.326
			C126.503,123.603,125.328,126.712,122.978,129.049z"/>
	</g>
</g>
</svg>
