<?xml version="1.0" encoding="utf-8"?>
<!-- Generator: Adobe Illustrator 18.1.1, SVG Export Plug-In . SVG Version: 6.00 Build 0)  -->
<svg version="1.1" id="Ebene_1" xmlns="http://www.w3.org/2000/svg" xmlns:xlink="http://www.w3.org/1999/xlink" x="0px" y="0px"
	 viewBox="0 0 272.11 300" enable-background="new 0 0 272.11 300" xml:space="preserve">
<g>
	<g>
		<path fill="none" d="M220.853,98.379c0,0-1.908,5.984-2.129,10.815c-0.184,4.033-0.952,7.109-1.341,10.284
			c0.7-0.867,1.372-1.466,1.783-1.539c1.325-0.23,8.811,2.992,8.811,2.992s0.641-0.456,1.612-1.156
			c1.423-1.99,4.526-6.195,7.688-9.586c4.297-4.603,5.829-15.652,5.829-15.652l2.666,1.348c2.765-3.678,6.564-7.406,6.564-7.406
			s-8.613-3.913-12.719-4.829c-3.655-0.824-11.052-7.368-11.052-7.368s-3.051,11.606-3.79,14.499
			C223.664,95.149,220.853,98.379,220.853,98.379z"/>
		<path fill="none" d="M162.76,114.947c-0.662-2.3-0.125-13.395-2.346-17.26c-0.476-0.83-0.901-2.073-1.285-3.531
			c-5.77,2.58-12.06,5.051-19.65,6.112c0.779,1.929,2.285,5.2,5.013,9.574c2.682,4.312,7.258,9.345,9.635,11.777
			c2.191,0.01,5.206-3.233,6.87-3.45c0.801-0.106,1.422-0.076,2.066,0.68C162.992,116.876,162.895,115.421,162.76,114.947z"/>
	</g>
	<g>
		<g>
			<path fill="none" d="M160.414,97.687c-0.476-0.83-0.901-2.073-1.285-3.531c-5.77,2.58-12.06,5.051-19.65,6.112
				c0.779,1.929,2.285,5.2,5.013,9.574c2.682,4.312,7.258,9.345,9.635,11.777c2.191,0.01,5.206-3.233,6.87-3.45
				c0.801-0.106,1.422-0.076,2.066,0.68c-0.071-1.974-0.168-3.429-0.303-3.903C162.098,112.647,162.635,101.552,160.414,97.687z"/>
			<path fill="none" d="M227.977,120.931c0,0,0.641-0.456,1.612-1.156c1.423-1.99,4.526-6.195,7.688-9.586
				c4.297-4.603,5.829-15.652,5.829-15.652l2.666,1.348c2.765-3.678,6.564-7.406,6.564-7.406s-8.613-3.913-12.719-4.829
				c-3.655-0.824-11.052-7.368-11.052-7.368s-3.051,11.606-3.79,14.499c-1.11,4.369-3.921,7.598-3.921,7.598
				s-1.908,5.984-2.129,10.815c-0.184,4.033-0.952,7.109-1.341,10.284c0.7-0.867,1.372-1.466,1.783-1.539
				C220.491,117.708,227.977,120.931,227.977,120.931z"/>
			<path fill="#EE8306" d="M257.027,280.16c-1.433-3.355-0.797-10.047-0.797-12.953c0-0.343-1.018-8.06-2.383-16.255l-1.229-21.082
				l-3.504,1.012c-2.445-6.758-4.549-16.189-5.956-18.713c-1.552-2.778-2.587-7.678-3.443-8.993
				c-0.863-1.328-4.139-19.725-5.174-24.75c-1.031-5.029-4.633-21.56-8.762-27.119c-4.132-5.551-6.195-8.602-6.541-11.377
				c-0.054-0.443-0.13-0.896-0.213-1.348c0.129,0.01,0.226,0.077,0.364,0.069c3.74-0.224,2.639-1.608,5.061-1.839
				c2.425-0.227,5.292-1.615,7.714-2.761c3.757-1.783,12.156-7.513,14.766-9.437c2.582-1.904,5.664-4.054,8.357-6.549
				c4.725-2.26,15.744-9.409,15.744-9.409l-5.936-3.002c0.595-1.073,1.043-2.124,1.224-3.137c0.659-3.681,3.302-5.061,3.743-5.984
				c0.442-0.919,2.425-4.142,1.984-6.673c-0.442-2.534-3.305-8.057-3.305-8.057s-2.02-3.222-3.341-5.753
				c-1.321-2.531-7.418-8.518-9.836-9.207c-2.425-0.692-9.516-6.215-9.516-6.215s-5.951-9.9-16.087-11.971
				c-5.799-1.186-11.226-1.892-15.423-2.495c-0.891-1.451-2.656-3.918-4.882-4.87c-0.96-0.412-2.959-0.616-5.527-0.702
				c0.258-2.572,0.133-4.884,0.509-5.464c0.485-0.708,0.705,0.287,2.29-1.222c2.254-2.142,2.913-4.877,3.608-6.643
				c0.702-1.76,0.155-4.923-1.361-4.104c-1.516,0.822-0.923-0.478-0.923-0.478s4.303-9.377-1.99-17.832
				c-1.625-1.872-11.974-10.553-23.135,1.172c0,0-2.435,2.117-2.435,8.104c0,0,0.217,6.692,0.346,7.282
				c0.115,0.577-3.262-2.481-3.384,1.274c-0.112,3.758,0,6.803,2.333,9.748c0,0,0.356,0.705,1.977,0.705
				c0,0,0.119,6.333-0.349,7.037c-0.071,0.109-0.405,0.399-0.835,0.751c-0.845,0.043-1.667,0.097-2.382,0.214
				c-12.414-1.433-31.114,6.394-37.668,10.569c-13.625,8.666-10.479,11.395-31.472,12.396c-20.987,1.009-25.92-10.656-60.693-13.444
				C13.78,47.874,0.956,74.687,0,74.529c0,0,23.099-6.801,39.255,9.732c16.156,16.53,20.288,34.04,20.288,34.04
				s16.113-16.848,53.808-18.55c1.201,1.089,2.257,1.887,2.849,2.499c0.708,0.735,1.909,3.976,3.934,7.681l-3.466,3.328
				c0,0,19.009,18.464,29.496,20.639c0.784,0.69,1.68,1.076,3.152,1.076c3.308,0,9.035,0.686,10.136,1.612
				c1.058,0.88,2.709,1.944,3.432,0.822c-1.311,3.867-4.537,12.972-7.65,18.525c-2.933,5.243-7.506,17.402-8.076,23.425
				c-0.57,6.014-2.59,21.297-2.93,24.477c-0.349,3.173-2.412,8.6-3.618,10.314c-1.206,1.723-4.462,8.999-6.699,12.703
				c-1.054,1.746-1.947,4.682-2.605,8.017l-2.974-0.461v34.526c-0.17,1.302-0.325,2.356-0.451,3.035
				c-0.692,3.707-3.101,5.154-3.443,8.597c-0.343,3.434-3.615,7.483-4.646,8.679c-1.035,1.19-7.111,3.753-6.88,5.872
				c0.382,3.572,3.987,4,8.976,4.139c4.989,0.135,12.528-0.3,15.111-2.412c2.58-2.119,2.405-2.646,3.269-3.312
				c0.86-0.659,2.409-0.26,3.266-1.987c0.86-1.717-4.129-17.197-3.094-24.074c0.14-0.932,0.415-1.911,0.766-2.91
				c5.636-7.49,16.283-25.63,16.283-25.63l-2.534-0.392c0.336-1.944,0.507-3.911,0.507-5.74c0-5.018,2.821-11.994,3.852-13.325
				c1.031-1.315,2.162-2.343,4.475-7.592c1.193-2.715,0.448-3.529,4.416-9.104c3.506-4.956,13.012-23.419,13.701-26.196
				c0.686-2.784,8.258-15.352,8.258-16.011c0-0.666,1.892,0.26,2.748,0c0.87-0.27,13.424,26.589,15.144,30.427
				c1.72,3.842,5.272,10.986,8.713,13.23c3.443,2.247,3.618,6.221,3.789,7.141c0.171,0.926,3.44,8.076,3.783,9.005
				c0.343,0.919,1.964,10.047,3.338,15.606c0.109,0.442,0.273,0.952,0.461,1.493l-4.366,1.743
				c2.046,0.198,9.014,17.932,18.316,27.758c0.641,2.326,1.033,4.765,0.954,7.163c-0.175,5.157-4.017,12.383-3.499,15.293
				c0.514,2.91,0.514,3.974,1.888,4.231c1.381,0.264,2.409,0.613,2.926,0.461c0.86,0.923,5.19,4.62,10.838,5.16
				c8.551,1.371,16.759-1.447,16.347-5.486C271.295,291.337,260.599,288.49,257.027,280.16z M160.997,118.169
				c-1.664,0.217-4.679,3.46-6.87,3.45c-2.377-2.432-6.953-7.465-9.635-11.777c-2.728-4.374-4.234-7.645-5.013-9.574
				c7.59-1.061,13.881-3.532,19.65-6.112c0.384,1.458,0.809,2.7,1.285,3.531c2.221,3.865,1.684,14.96,2.346,17.26
				c0.135,0.474,0.232,1.929,0.303,3.903C162.419,118.093,161.798,118.064,160.997,118.169z M192.245,82.549
				c-6.208,0-11.25-5.041-11.25-11.25c0-6.211,5.041-11.249,11.25-11.249c6.208,0,11.246,5.038,11.246,11.249
				C203.491,77.507,198.453,82.549,192.245,82.549z M217.384,119.478c0.389-3.175,1.157-6.251,1.341-10.284
				c0.221-4.831,2.129-10.815,2.129-10.815s2.811-3.229,3.921-7.598c0.738-2.893,3.79-14.499,3.79-14.499s7.397,6.544,11.052,7.368
				c4.106,0.916,12.719,4.829,12.719,4.829s-3.799,3.728-6.564,7.406l-2.666-1.348c0,0-1.532,11.049-5.829,15.652
				c-3.162,3.391-6.264,7.595-7.688,9.586c-0.97,0.7-1.612,1.156-1.612,1.156s-7.486-3.222-8.811-2.992
				C218.756,118.011,218.084,118.611,217.384,119.478z"/>
		</g>
		<polygon fill="#EE8306" points="192.245,64.195 190.554,68.966 185.497,69.092 189.513,72.176 188.07,77.026 192.245,74.159 
			196.417,77.026 194.973,72.176 198.987,69.092 193.929,68.966 192.245,64.195 		"/>
	</g>
</g>
</svg>
