<?xml version="1.0" encoding="utf-8"?>
<!-- Generator: Adobe Illustrator 19.0.1, SVG Export Plug-In . SVG Version: 6.00 Build 0)  -->
<svg version="1.1" id="Ebene_1" xmlns="http://www.w3.org/2000/svg" xmlns:xlink="http://www.w3.org/1999/xlink" x="0px" y="0px"
	 viewBox="-134 115 117.589 30.174" enable-background="new -134 115 117.589 30.174" xml:space="preserve">
<g>
	<path fill="#EE8704" d="M-104.058,118.626c0.762-0.205,1.684-0.303,2.56-0.303c1.542,0,2.696,0.327,3.51,1.108
		c0.756,0.789,1.08,1.828,1.08,3.049c0,1.982-0.921,3.269-2.489,3.984v0.055c1.151,0.347,1.756,1.441,2.099,3.483
		c0.348,2.132,0.664,3.453,0.88,3.943h-1.803c-0.232-0.461-0.53-1.941-0.831-3.854c-0.345-2.13-1.02-2.935-2.541-2.935h-0.693v6.789
		h-1.772C-104.058,133.945-104.058,118.626-104.058,118.626z M-102.286,125.802h0.746c1.699,0,2.834-1.251,2.834-3.123
		c0-1.798-0.736-2.906-2.654-2.923c-0.349,0-0.697,0.017-0.926,0.091V125.802z"/>
	<path fill="#EE8704" d="M-93.512,128.516c0.016,3.414,1.352,4.161,2.648,4.161c0.76,0,1.408-0.2,1.841-0.442l0.277,1.306
		c-0.624,0.348-1.57,0.549-2.441,0.549c-2.674,0-4.065-2.202-4.065-5.612c0-3.626,1.524-5.882,3.767-5.882
		c2.277,0,3.179,2.398,3.179,4.933c0,0.406,0,0.719-0.028,0.988L-93.512,128.516L-93.512,128.516z M-90.017,127.21
		c0.051-2.245-0.806-3.234-1.654-3.234c-1.151,0-1.755,1.709-1.825,3.234H-90.017z"/>
	<path fill="#EE8704" d="M-79.657,132.506c0,2.936-0.368,4.03-1.107,4.845c-0.667,0.768-1.729,1.196-2.98,1.196
		c-0.936,0-1.862-0.228-2.443-0.548l0.416-1.382c0.446,0.234,1.177,0.491,2.084,0.491c1.398,0,2.273-0.892,2.273-3.425v-1.121
		h-0.045c-0.389,0.862-1.194,1.353-2.142,1.353c-1.983,0-3.278-2.243-3.278-5.517c0-4.098,1.868-5.804,3.511-5.804
		c1.193,0,1.754,0.776,2.072,1.45h0.05l0.089-1.267h1.597c-0.027,0.781-0.097,1.774-0.097,3.484
		C-79.657,126.261-79.657,132.506-79.657,132.506z M-81.414,126.632c0-0.286-0.017-0.572-0.086-0.807
		c-0.211-0.768-0.605-1.707-1.61-1.707c-1.296,0-1.987,1.723-1.987,4.186c0,2.878,0.895,4.163,1.987,4.163
		c0.527,0,1.221-0.252,1.581-1.601c0.098-0.347,0.115-0.691,0.115-1.008V126.632z"/>
	<path fill="#EE8704" d="M-75.271,119.888c0.017,0.693-0.416,1.157-1.091,1.157c-0.576,0-1.008-0.464-1.008-1.157
		c0-0.69,0.461-1.149,1.038-1.149C-75.687,118.739-75.271,119.198-75.271,119.888z M-77.183,133.945v-11.167h1.77v11.167H-77.183z"
		/>
	<path fill="#EE8704" d="M-66.094,128.361c0,4.316-2.011,5.755-3.71,5.755c-2.012,0-3.622-1.811-3.622-5.728
		c0-4.088,1.811-5.794,3.736-5.794C-67.705,122.595-66.094,124.463-66.094,128.361z M-71.648,128.361
		c0,1.843,0.319,4.345,1.929,4.345c1.528,0,1.815-2.616,1.815-4.345c0-1.706-0.287-4.345-1.859-4.345
		C-71.358,124.017-71.648,126.655-71.648,128.361z"/>
	<path fill="#EE8704" d="M-62.323,118.392v6.665h4.376v-6.665h1.781v15.553h-1.781v-7.279h-4.376v7.279h-1.757v-15.553
		C-64.08,118.392-62.323,118.392-62.323,118.392z"/>
	<path fill="#EE8704" d="M-52.398,128.516c0.03,3.414,1.354,4.161,2.649,4.161c0.777,0,1.409-0.2,1.844-0.442l0.287,1.306
		c-0.635,0.348-1.568,0.549-2.449,0.549c-2.673,0-4.055-2.202-4.055-5.612c0-3.626,1.523-5.882,3.765-5.882
		c2.276,0,3.171,2.398,3.171,4.933c0,0.406,0,0.719-0.022,0.988L-52.398,128.516L-52.398,128.516z M-48.885,127.21
		c0.049-2.245-0.806-3.234-1.668-3.234c-1.153,0-1.759,1.709-1.814,3.234H-48.885z"/>
	<path fill="#EE8704" d="M-45.261,117.976h1.773v15.969h-1.773V117.976z"/>
	<path fill="#EE8704" d="M-34.155,117.976v13.292c0,0.751,0.083,2.015,0.086,2.677h-1.514l-0.117-1.409h-0.065
		c-0.371,0.804-1.153,1.581-2.331,1.581c-1.897,0-3.253-2.044-3.253-5.717c0-3.966,1.64-5.804,3.369-5.804
		c0.804,0,1.582,0.388,2.039,1.336h0.032v-5.956H-34.155z M-35.909,127.012c0-0.232,0-0.474-0.022-0.723
		c-0.115-1.165-0.811-2.171-1.648-2.171c-1.491,0-1.987,2.057-1.987,4.281c0,2.353,0.605,4.252,1.892,4.252
		c0.559,0,1.306-0.299,1.706-1.926c0.038-0.205,0.061-0.463,0.061-0.723v-2.99L-35.909,127.012L-35.909,127.012z"/>
	<path fill="#EE8704" d="M-30.416,128.516c0.03,3.414,1.354,4.161,2.649,4.161c0.771,0,1.41-0.2,1.839-0.442l0.291,1.306
		c-0.635,0.348-1.575,0.549-2.448,0.549c-2.677,0-4.056-2.202-4.056-5.612c0-3.626,1.524-5.882,3.767-5.882
		c2.275,0,3.166,2.398,3.166,4.933c0,0.406,0,0.719-0.028,0.988L-30.416,128.516L-30.416,128.516z M-26.904,127.21
		c0.041-2.245-0.805-3.234-1.667-3.234c-1.153,0-1.755,1.709-1.814,3.234H-26.904z"/>
	<path fill="#EE8704" d="M-23.283,125.656c0-1.308-0.081-1.982-0.092-2.878h1.535l0.092,1.341h0.052
		c0.49-0.907,1.381-1.523,2.559-1.523c1.553,0,2.706,1.148,2.706,3.841v7.509h-1.784v-7.194c0-1.324-0.257-2.66-1.551-2.66
		c-0.725,0-1.439,0.617-1.673,1.826c-0.053,0.273-0.076,0.622-0.076,0.977v7.051h-1.768V125.656L-23.283,125.656z"/>
</g>
<g>
	<g>
		<path fill="#989898" d="M-76.188,140.753c0,0.791-0.399,2.241-1.362,2.241c-0.588,0-0.775-0.521-0.775-1.077
			c0-0.846,0.457-2.193,1.401-2.193C-76.294,139.724-76.188,140.336-76.188,140.753z M-77.844,141.886
			c0,0.348,0.028,0.716,0.359,0.716c0.576,0,0.82-1.337,0.82-1.88c0-0.333-0.062-0.598-0.337-0.598
			C-77.525,140.125-77.844,141.255-77.844,141.886z"/>
		<path fill="#989898" d="M-76.011,142.932l0.863-4.523h0.464l-0.516,2.74h0.005c0.073-0.098,0.167-0.223,0.217-0.31l0.809-1.052
			h0.539l-1.077,1.317l0.611,1.827h-0.477l-0.495-1.553l-0.248,0.296l-0.233,1.257L-76.011,142.932
			C-76.011,142.931-76.011,142.932-76.011,142.932z"/>
		<path fill="#989898" d="M-72.372,142.932c0.008-0.167,0.032-0.349,0.049-0.581h-0.009c-0.33,0.527-0.601,0.644-0.835,0.644
			c-0.368,0-0.589-0.315-0.589-0.879c0-0.967,0.507-2.392,1.73-2.392c0.22,0,0.448,0.055,0.583,0.1l-0.371,1.828
			c-0.077,0.417-0.147,0.932-0.141,1.28L-72.372,142.932L-72.372,142.932z M-71.974,140.138c-0.061-0.014-0.115-0.021-0.199-0.021
			c-0.705,0-1.098,1.156-1.109,1.849c-0.007,0.386,0.061,0.618,0.29,0.618c0.321,0,0.668-0.618,0.786-1.258L-71.974,140.138z"/>
		<path fill="#989898" d="M-71.364,142.932l0.855-4.523h0.481l-0.874,4.523H-71.364z"/>
		<path fill="#989898" d="M-68.456,142.79c-0.229,0.127-0.473,0.188-0.73,0.188c-0.687,0-0.898-0.51-0.898-1.109
			c0-0.863,0.48-2.144,1.377-2.144c0.465,0,0.671,0.353,0.671,0.725c0,0.753-0.683,1.088-1.553,1.088
			c-0.015,0.107-0.039,0.458,0.029,0.641c0.06,0.274,0.235,0.406,0.483,0.406c0.242,0,0.408-0.085,0.56-0.162L-68.456,142.79z
			 M-68.486,140.478c0-0.22-0.103-0.34-0.283-0.34c-0.29,0-0.584,0.35-0.764,1.033c0.513-0.012,1.047-0.188,1.047-0.684V140.478z"/>
		<path fill="#989898" d="M-65.668,138.528l-0.841,4.404h-0.464l0.83-4.404H-65.668z"/>
		<path fill="#989898" d="M-65.75,142.932l0.395-2.074c0.084-0.462,0.125-0.833,0.157-1.07h0.423l-0.062,0.484h0.015
			c0.26-0.364,0.522-0.548,0.859-0.548c0.373,0,0.533,0.301,0.533,0.65c0,0.174-0.032,0.333-0.056,0.502l-0.386,2.056h-0.472
			l0.393-2.048c0.009-0.146,0.032-0.276,0.032-0.428c0-0.198-0.068-0.318-0.266-0.318c-0.298,0-0.654,0.449-0.771,1.051
			l-0.331,1.743L-65.75,142.932L-65.75,142.932z"/>
		<path fill="#989898" d="M-61.889,139.04l-0.156,0.748h0.604l-0.069,0.354h-0.591l-0.34,1.808
			c-0.038,0.169-0.053,0.306-0.053,0.402c0,0.139,0.053,0.233,0.212,0.233c0.077,0,0.145,0,0.191-0.008l-0.027,0.356
			c-0.107,0.037-0.231,0.045-0.337,0.045c-0.333,0-0.543-0.188-0.543-0.51c0-0.116,0.017-0.243,0.079-0.502l0.348-1.824h-0.387
			l0.053-0.354h0.397l0.092-0.551L-61.889,139.04z"/>
		<path fill="#989898" d="M-59.949,142.79c-0.224,0.127-0.468,0.188-0.746,0.188c-0.665,0-0.878-0.51-0.878-1.109
			c0-0.863,0.479-2.144,1.377-2.144c0.459,0,0.663,0.353,0.663,0.725c0,0.753-0.698,1.088-1.544,1.088
			c-0.017,0.107-0.039,0.458,0.022,0.641c0.063,0.274,0.236,0.406,0.475,0.406c0.241,0,0.423-0.085,0.571-0.162L-59.949,142.79z
			 M-59.996,140.478c0-0.22-0.085-0.34-0.265-0.34c-0.292,0-0.581,0.35-0.764,1.033c0.51-0.012,1.028-0.188,1.028-0.684
			L-59.996,140.478L-59.996,140.478z"/>
		<path fill="#989898" d="M-59.471,142.932l0.404-2.108c0.074-0.442,0.113-0.802,0.12-1.036h0.423
			c-0.008,0.155-0.021,0.337-0.063,0.587h0.023c0.194-0.392,0.472-0.65,0.789-0.65c0.039,0,0.071,0.007,0.104,0.007l-0.115,0.505
			c-0.003,0-0.022-0.009-0.04-0.009c-0.429,0-0.775,0.59-0.876,1.061l-0.31,1.644L-59.471,142.932L-59.471,142.932z"/>
		<path fill="#989898" d="M-57.863,142.932l0.395-2.074c0.085-0.462,0.14-0.833,0.156-1.07h0.425l-0.064,0.484h0.017
			c0.259-0.364,0.54-0.548,0.86-0.548c0.377,0,0.531,0.301,0.531,0.65c0,0.174-0.03,0.333-0.046,0.502l-0.395,2.056h-0.473
			l0.396-2.048c0.014-0.146,0.029-0.276,0.029-0.428c0-0.198-0.068-0.318-0.259-0.318c-0.306,0-0.662,0.449-0.782,1.051
			l-0.329,1.743L-57.863,142.932L-57.863,142.932z"/>
		<path fill="#989898" d="M-53.553,142.79c-0.227,0.127-0.472,0.188-0.748,0.188c-0.668,0-0.878-0.51-0.878-1.109
			c0-0.863,0.478-2.144,1.374-2.144c0.464,0,0.666,0.353,0.666,0.725c0,0.753-0.698,1.088-1.543,1.088
			c-0.02,0.107-0.045,0.458,0.02,0.641c0.065,0.274,0.239,0.406,0.479,0.406c0.239,0,0.419-0.085,0.569-0.162L-53.553,142.79z
			 M-53.6,140.478c0-0.22-0.085-0.34-0.267-0.34c-0.291,0-0.584,0.35-0.763,1.033c0.511-0.012,1.029-0.188,1.029-0.684
			L-53.6,140.478L-53.6,140.478z"/>
		<path fill="#989898" d="M-51.79,139.04l-0.159,0.748h0.606l-0.064,0.354h-0.595l-0.338,1.807c-0.04,0.169-0.058,0.306-0.058,0.402
			c0,0.139,0.071,0.233,0.213,0.233c0.094,0,0.141,0,0.209-0.008l-0.041,0.356c-0.111,0.037-0.235,0.045-0.341,0.045
			c-0.329,0-0.542-0.188-0.542-0.51c0-0.116,0.015-0.243,0.078-0.502l0.347-1.824h-0.385l0.071-0.354h0.377l0.092-0.551
			L-51.79,139.04z"/>
		<path fill="#989898" d="M-50.601,139.788l0.02,1.757c-0.005,0.342-0.005,0.573-0.03,0.807h0.025
			c0.062-0.233,0.14-0.465,0.268-0.771l0.785-1.793h0.353l0.082,1.774c0.008,0.341,0.015,0.554-0.024,0.789h0.032
			c0.06-0.233,0.138-0.475,0.257-0.814l0.699-1.749h0.465l-1.361,3.144h-0.387l-0.102-1.706c-0.014-0.254-0.007-0.504,0.025-0.785
			h-0.025c-0.084,0.281-0.165,0.556-0.257,0.785l-0.755,1.706h-0.401l-0.155-3.144L-50.601,139.788L-50.601,139.788z"/>
		<path fill="#989898" d="M-46.153,142.79c-0.229,0.127-0.473,0.188-0.729,0.188c-0.677,0-0.898-0.51-0.898-1.109
			c0-0.863,0.479-2.144,1.385-2.144c0.466,0,0.662,0.353,0.662,0.725c0,0.753-0.678,1.088-1.552,1.088
			c-0.016,0.107-0.04,0.458,0.021,0.641c0.066,0.274,0.237,0.406,0.491,0.406s0.407-0.085,0.559-0.162L-46.153,142.79z
			 M-46.174,140.478c0-0.22-0.104-0.34-0.291-0.34c-0.278,0-0.585,0.35-0.743,1.033c0.491-0.012,1.034-0.188,1.034-0.684V140.478z"
			/>
		<path fill="#989898" d="M-45.681,142.932l0.411-2.108c0.069-0.442,0.116-0.802,0.139-1.036h0.401
			c-0.007,0.155-0.021,0.337-0.038,0.587l0,0c0.213-0.392,0.472-0.65,0.809-0.65c0.015,0,0.046,0.007,0.079,0.007l-0.085,0.505
			c-0.017,0-0.047-0.009-0.071-0.009c-0.41,0-0.762,0.59-0.852,1.061l-0.33,1.644L-45.681,142.932L-45.681,142.932z"/>
		<path fill="#989898" d="M-42.756,138.409l-0.336,1.771h0.014c0.23-0.324,0.449-0.456,0.718-0.456c0.494,0,0.616,0.52,0.616,0.886
			c0,0.952-0.517,2.385-1.6,2.385c-0.425,0-0.615-0.252-0.615-0.573c0-0.138,0.006-0.276,0.023-0.353l0.708-3.66H-42.756z
			 M-43.457,141.995c-0.021,0.094-0.031,0.183-0.031,0.307c0,0.173,0.084,0.308,0.275,0.308c0.654,0,0.984-1.304,0.984-1.87
			c0-0.364-0.096-0.598-0.337-0.598c-0.282,0-0.574,0.353-0.689,0.88L-43.457,141.995z"/>
		<path fill="#989898" d="M-39.104,139.788l-0.402,2.08c-0.081,0.456-0.12,0.829-0.146,1.064h-0.422l0.058-0.48h-0.016
			c-0.247,0.38-0.552,0.543-0.852,0.543c-0.388,0-0.526-0.298-0.526-0.644c0-0.182,0.015-0.348,0.038-0.503l0.404-2.06h0.459
			l-0.375,1.982c-0.04,0.179-0.047,0.338-0.047,0.484c0,0.213,0.079,0.329,0.259,0.329c0.321,0,0.655-0.423,0.756-0.983l0.336-1.813
			h0.476C-39.104,139.787-39.104,139.788-39.104,139.788z"/>
		<path fill="#989898" d="M-38.996,142.932l0.391-2.074c0.091-0.462,0.118-0.833,0.158-1.07h0.423l-0.059,0.484h0.016
			c0.26-0.364,0.518-0.548,0.854-0.548c0.379,0,0.538,0.301,0.538,0.65c0,0.174-0.031,0.333-0.07,0.502l-0.369,2.056h-0.474
			l0.378-2.048c0.02-0.146,0.049-0.276,0.049-0.428c0-0.198-0.074-0.318-0.281-0.318c-0.288,0-0.641,0.449-0.762,1.051l-0.328,1.743
			L-38.996,142.932L-38.996,142.932z"/>
		<path fill="#989898" d="M-36.394,143.726c0.134,0.063,0.348,0.137,0.521,0.137c0.48,0,0.668-0.35,0.791-0.931l0.114-0.496h-0.017
			c-0.25,0.434-0.518,0.525-0.745,0.525c-0.372,0-0.599-0.313-0.606-0.911c-0.01-0.938,0.495-2.326,1.619-2.326
			c0.251,0,0.512,0.069,0.67,0.163l-0.507,2.73c-0.123,0.664-0.284,1.076-0.503,1.296c-0.213,0.229-0.512,0.333-0.849,0.333
			c-0.244,0-0.492-0.058-0.606-0.151L-36.394,143.726z M-34.562,140.166c-0.079-0.024-0.146-0.041-0.283-0.041
			c-0.638,0-0.996,1.109-1.013,1.762c-0.009,0.368,0.043,0.697,0.313,0.697c0.34,0,0.632-0.596,0.707-1.022L-34.562,140.166z"/>
		<path fill="#989898" d="M-32.981,142.932l0.396-2.074c0.084-0.462,0.139-0.833,0.154-1.07h0.427l-0.063,0.494h0.017
			c0.252-0.374,0.537-0.558,0.823-0.558c0.333,0,0.497,0.275,0.522,0.548c0.239-0.361,0.534-0.548,0.819-0.548
			c0.364,0,0.538,0.301,0.538,0.644c0,0.142-0.03,0.354-0.074,0.576l-0.373,1.988h-0.465l0.374-2.006
			c0.029-0.173,0.051-0.318,0.051-0.485c0-0.183-0.066-0.303-0.259-0.303c-0.274,0-0.607,0.417-0.724,1.05l-0.346,1.744h-0.463
			l0.384-2.006c0.043-0.173,0.063-0.318,0.063-0.477c0-0.19-0.095-0.311-0.26-0.311c-0.275,0-0.635,0.449-0.747,1.05l-0.328,1.744
			C-32.515,142.932-32.981,142.932-32.981,142.932z"/>
		<path fill="#989898" d="M-27.358,142.79c-0.229,0.127-0.469,0.188-0.757,0.188c-0.656,0-0.869-0.51-0.869-1.109
			c0-0.863,0.48-2.144,1.379-2.144c0.459,0,0.64,0.353,0.64,0.725c0,0.753-0.675,1.088-1.525,1.088
			c-0.013,0.107-0.04,0.458,0.002,0.641c0.085,0.274,0.235,0.406,0.488,0.406c0.251,0,0.433-0.085,0.557-0.162L-27.358,142.79z
			 M-27.405,140.478c0-0.22-0.086-0.34-0.271-0.34c-0.286,0-0.582,0.35-0.758,1.033c0.511-0.012,1.029-0.188,1.029-0.684V140.478z"
			/>
		<path fill="#989898" d="M-26.872,142.462c0.098,0.052,0.241,0.134,0.474,0.134c0.338-0.009,0.521-0.237,0.521-0.526
			c0-0.295-0.145-0.448-0.317-0.624c-0.21-0.19-0.422-0.473-0.422-0.761c0-0.543,0.398-0.96,0.998-0.96
			c0.201,0,0.382,0.064,0.495,0.124l-0.135,0.364c-0.094-0.063-0.236-0.096-0.368-0.096c-0.325,0-0.52,0.212-0.52,0.491
			c0,0.231,0.148,0.382,0.308,0.524c0.25,0.208,0.44,0.519,0.44,0.833c0,0.676-0.44,1.012-1.033,1.012
			c-0.251,0-0.503-0.092-0.588-0.162L-26.872,142.462z"/>
		<path fill="#989898" d="M-25.029,142.462c0.093,0.052,0.259,0.134,0.491,0.134c0.316-0.009,0.498-0.237,0.498-0.526
			c0-0.295-0.141-0.448-0.313-0.624c-0.213-0.19-0.418-0.473-0.418-0.761c0-0.543,0.395-0.96,0.99-0.96
			c0.204,0,0.401,0.064,0.495,0.124l-0.131,0.364c-0.091-0.063-0.236-0.096-0.372-0.096c-0.32,0-0.519,0.212-0.519,0.491
			c0,0.231,0.151,0.382,0.306,0.524c0.256,0.208,0.44,0.519,0.44,0.833c0,0.676-0.44,1.012-1.028,1.012
			c-0.253,0-0.504-0.092-0.588-0.162L-25.029,142.462z"/>
		<path fill="#989898" d="M-21.878,138.409l-0.336,1.771h0.001c0.233-0.324,0.465-0.456,0.707-0.456c0.496,0,0.632,0.52,0.632,0.886
			c0,0.952-0.523,2.385-1.591,2.385c-0.445,0-0.639-0.252-0.639-0.573c0-0.138,0.024-0.276,0.048-0.353l0.708-3.66H-21.878z
			 M-22.578,141.995c-0.021,0.094-0.038,0.183-0.038,0.307c0,0.173,0.061,0.308,0.281,0.308c0.632,0,0.96-1.304,0.96-1.87
			c0-0.364-0.076-0.598-0.337-0.598c-0.269,0-0.572,0.353-0.668,0.88L-22.578,141.995z"/>
		<path fill="#989898" d="M-19.218,142.932c0.006-0.167,0.028-0.349,0.034-0.581h-0.006c-0.319,0.527-0.587,0.644-0.821,0.644
			c-0.367,0-0.588-0.315-0.588-0.879c0-0.967,0.494-2.392,1.729-2.392c0.22,0,0.447,0.055,0.58,0.1l-0.368,1.828
			c-0.081,0.417-0.151,0.932-0.145,1.28L-19.218,142.932L-19.218,142.932z M-18.832,140.138c-0.046-0.014-0.125-0.021-0.189-0.021
			c-0.709,0-1.099,1.156-1.11,1.849c-0.008,0.386,0.066,0.618,0.287,0.618c0.312,0,0.655-0.618,0.776-1.258L-18.832,140.138z"/>
		<path fill="#989898" d="M-18.208,142.932l0.405-2.108c0.073-0.442,0.119-0.802,0.126-1.036h0.416
			c-0.004,0.155-0.023,0.337-0.063,0.587h0.023c0.204-0.392,0.473-0.65,0.789-0.65c0.039,0,0.071,0.007,0.101,0.007l-0.104,0.505
			c0,0-0.03-0.009-0.054-0.009c-0.41,0-0.763,0.59-0.871,1.061l-0.309,1.644L-18.208,142.932L-18.208,142.932z"/>
	</g>
	<g>
		<path fill="#989898" d="M-79.56,138.368h0.486l-0.784,4.137h1.252l-0.083,0.428h-1.744L-79.56,138.368z"/>
	</g>
</g>
<rect x="-106.32" y="116.933" fill="none" width="91.375" height="23.092"/>
<g>
	<g>
		<path fill="none" d="M-111.765,124.905c0,0-0.193,0.601-0.22,1.086c-0.013,0.418-0.092,0.72-0.129,1.033
			c0.063-0.081,0.132-0.136,0.174-0.138c0.133-0.028,0.887,0.291,0.887,0.291s0.065-0.057,0.159-0.116
			c0.149-0.194,0.465-0.634,0.777-0.974c0.439-0.459,0.588-1.564,0.588-1.564l0.264,0.127c0.288-0.362,0.665-0.743,0.665-0.743
			s-0.866-0.391-1.281-0.478c-0.371-0.089-1.114-0.752-1.114-0.752s-0.305,1.17-0.376,1.461
			C-111.481,124.585-111.765,124.905-111.765,124.905z"/>
		<path fill="none" d="M-117.618,126.57c-0.068-0.232-0.015-1.339-0.237-1.736c-0.046-0.077-0.086-0.204-0.131-0.356
			c-0.582,0.265-1.214,0.518-1.977,0.622c0.079,0.188,0.233,0.517,0.51,0.972c0.266,0.428,0.725,0.934,0.966,1.166
			c0.219,0,0.524-0.322,0.69-0.348c0.085-0.001,0.149-0.001,0.215,0.083C-117.59,126.771-117.601,126.628-117.618,126.57z"/>
	</g>
	<g>
		<g>
			<path fill="none" d="M-117.854,124.834c-0.046-0.077-0.086-0.204-0.131-0.356c-0.582,0.265-1.214,0.518-1.977,0.622
				c0.079,0.188,0.233,0.517,0.51,0.972c0.266,0.428,0.725,0.934,0.966,1.166c0.219,0,0.524-0.322,0.69-0.348
				c0.085-0.001,0.149-0.001,0.215,0.083c-0.009-0.201-0.02-0.345-0.037-0.402C-117.686,126.338-117.633,125.231-117.854,124.834z"
				/>
			<path fill="none" d="M-111.053,127.177c0,0,0.065-0.057,0.159-0.116c0.149-0.194,0.465-0.634,0.777-0.974
				c0.439-0.459,0.588-1.564,0.588-1.564l0.264,0.127c0.288-0.362,0.665-0.743,0.665-0.743s-0.866-0.391-1.281-0.478
				c-0.371-0.089-1.114-0.752-1.114-0.752s-0.305,1.17-0.376,1.461c-0.111,0.447-0.395,0.766-0.395,0.766s-0.193,0.601-0.22,1.086
				c-0.013,0.418-0.092,0.72-0.129,1.033c0.063-0.081,0.132-0.136,0.174-0.138C-111.807,126.858-111.053,127.177-111.053,127.177z"
				/>
			<path fill="#EE8704" d="M-108.125,143.204c-0.149-0.336-0.085-1.005-0.085-1.311c0-0.017-0.1-0.811-0.242-1.635l-0.116-2.105
				l-0.35,0.098c-0.25-0.676-0.464-1.631-0.604-1.889c-0.153-0.289-0.266-0.766-0.347-0.9c-0.092-0.136-0.418-1.986-0.52-2.502
				c-0.101-0.491-0.467-2.162-0.885-2.717c-0.418-0.565-0.62-0.878-0.662-1.146c-0.006-0.051-0.006-0.105-0.014-0.136
				c0.008,0.001,0.016,0.01,0.032,0.009c0.383-0.028,0.268-0.172,0.507-0.2c0.246-0.021,0.534-0.146,0.78-0.262
				c0.376-0.193,1.225-0.769,1.482-0.955c0.266-0.199,0.58-0.421,0.847-0.665c0.478-0.233,1.588-0.938,1.588-0.938l-0.602-0.316
				c0.061-0.107,0.103-0.21,0.125-0.31c0.068-0.375,0.329-0.506,0.371-0.607c0.052-0.087,0.246-0.416,0.205-0.666
				c-0.042-0.26-0.33-0.811-0.33-0.811s-0.209-0.332-0.346-0.579c-0.124-0.259-0.745-0.86-0.988-0.926
				c-0.237-0.073-0.954-0.632-0.954-0.632s-0.602-0.988-1.618-1.205c-0.584-0.12-1.135-0.19-1.557-0.249
				c-0.089-0.146-0.267-0.398-0.49-0.49c-0.092-0.038-0.299-0.063-0.557-0.073c0.024-0.252,0.01-0.485,0.056-0.544
				c0.046-0.074,0.062,0.022,0.23-0.125c0.226-0.223,0.293-0.496,0.354-0.675c0.073-0.178,0.018-0.49-0.129-0.414
				c-0.16,0.087-0.1-0.046-0.1-0.046s0.438-0.946-0.194-1.794c-0.157-0.189-1.201-1.064-2.326,0.121c0,0-0.248,0.208-0.248,0.816
				c0,0,0.026,0.669,0.036,0.729c0.009,0.058-0.33-0.241-0.344,0.131c-0.004,0.384,0,0.682,0.235,0.98c0,0,0.043,0.073,0.204,0.073
				c0,0,0.015,0.637-0.036,0.711c-0.002,0.013-0.042,0.037-0.083,0.079c-0.09,0-0.167,0-0.242,0.014
				c-1.245-0.137-3.131,0.645-3.795,1.068c-1.367,0.873-1.055,1.144-3.163,1.243c-2.116,0.108-2.607-1.068-6.111-1.347
				c-3.503-0.28-4.797,2.415-4.889,2.396c0,0,2.324-0.682,3.951,0.986c1.626,1.662,2.044,3.417,2.044,3.417s1.621-1.685,5.419-1.856
				c0.122,0.108,0.226,0.184,0.286,0.244c0.072,0.081,0.188,0.408,0.393,0.781l-0.349,0.34c0,0,1.913,1.859,2.971,2.074
				c0.08,0.06,0.168,0.107,0.312,0.107c0.34,0,0.916,0.06,1.025,0.154c0.104,0.102,0.27,0.207,0.345,0.094
				c-0.135,0.374-0.455,1.301-0.772,1.867c-0.296,0.516-0.756,1.754-0.813,2.341c-0.057,0.609-0.255,2.154-0.296,2.467
				c-0.031,0.323-0.245,0.878-0.361,1.038c-0.117,0.185-0.452,0.914-0.676,1.278c-0.103,0.189-0.195,0.473-0.256,0.807l-0.301-0.032
				v3.472c-0.021,0.136-0.039,0.239-0.046,0.298c-0.068,0.378-0.314,0.53-0.349,0.876c-0.036,0.344-0.362,0.74-0.465,0.861
				c-0.112,0.121-0.717,0.384-0.698,0.594c0.042,0.36,0.408,0.415,0.906,0.432c0.498,0.002,1.258-0.037,1.523-0.245
				c0.253-0.218,0.244-0.275,0.325-0.334c0.093-0.077,0.244-0.029,0.328-0.214c0.089-0.16-0.408-1.729-0.307-2.42
				c0.015-0.09,0.038-0.184,0.074-0.281c0.572-0.766,1.637-2.585,1.637-2.585l-0.248-0.048c0.028-0.188,0.049-0.383,0.049-0.577
				c0-0.503,0.283-1.2,0.384-1.33c0.101-0.136,0.215-0.237,0.447-0.779c0.121-0.256,0.055-0.355,0.452-0.913
				c0.355-0.502,1.305-2.363,1.376-2.629c0.071-0.29,0.835-1.553,0.835-1.608c0-0.08,0.182,0.015,0.273,0
				c0.083-0.032,1.355,2.677,1.528,3.047c0.172,0.394,0.531,1.118,0.878,1.344c0.346,0.224,0.355,0.623,0.376,0.722
				c0.021,0.089,0.346,0.813,0.383,0.902c0.035,0.087,0.195,1.004,0.338,1.559c0.01,0.056,0.021,0.114,0.044,0.158l-0.441,0.189
				c0.207,0.001,0.91,1.793,1.847,2.791c0.066,0.231,0.102,0.465,0.092,0.705c-0.02,0.531-0.404,1.266-0.354,1.546
				c0.051,0.306,0.051,0.412,0.194,0.423c0.14,0.027,0.245,0.069,0.296,0.051c0.081,0.087,0.522,0.466,1.087,0.53
				c0.859,0.118,1.687-0.151,1.65-0.571C-106.692,144.327-107.763,144.046-108.125,143.204z M-117.796,126.889
				c-0.167,0.026-0.472,0.348-0.69,0.348c-0.241-0.232-0.7-0.738-0.966-1.166c-0.277-0.455-0.431-0.783-0.51-0.972
				c0.762-0.104,1.395-0.356,1.977-0.622c0.045,0.153,0.085,0.279,0.131,0.356c0.222,0.397,0.168,1.504,0.237,1.736
				c0.016,0.058,0.028,0.201,0.037,0.402C-117.647,126.888-117.711,126.888-117.796,126.889z M-114.649,123.313
				c-0.622,0-1.127-0.51-1.127-1.131c0-0.623,0.505-1.136,1.127-1.136c0.623,0,1.138,0.513,1.138,1.136
				C-113.511,122.803-114.026,123.313-114.649,123.313z M-112.114,127.024c0.037-0.313,0.116-0.615,0.129-1.033
				c0.027-0.484,0.22-1.086,0.22-1.086s0.284-0.319,0.395-0.766c0.071-0.291,0.376-1.461,0.376-1.461s0.743,0.663,1.114,0.752
				c0.415,0.087,1.281,0.478,1.281,0.478s-0.377,0.381-0.665,0.743l-0.264-0.127c0,0-0.149,1.105-0.588,1.564
				c-0.312,0.34-0.628,0.779-0.777,0.974c-0.094,0.059-0.159,0.116-0.159,0.116s-0.754-0.319-0.887-0.291
				C-111.981,126.888-112.051,126.943-112.114,127.024z"/>
		</g>
		<polygon fill="#EE8704" points="-114.649,121.462 -114.819,121.945 -115.325,121.962 -114.92,122.267 -115.071,122.757 
			-114.649,122.468 -114.226,122.757 -114.378,122.267 -113.974,121.962 -114.48,121.945 		"/>
	</g>
</g>
</svg>
