<?xml version="1.0" encoding="utf-8"?>
<!-- Generator: Adobe Illustrator 19.1.0, SVG Export Plug-In . SVG Version: 6.00 Build 0)  -->
<svg version="1.1" id="Ebene_1" xmlns="http://www.w3.org/2000/svg" xmlns:xlink="http://www.w3.org/1999/xlink" x="0px" y="0px"
	 viewBox="-238 283.106 117.589 30.174" enable-background="new -238 283.106 117.589 30.174" xml:space="preserve">
<g>
	<path fill="#ED8604" d="M-208.149,293.319c0.758-0.209,1.679-0.3,2.552-0.3c1.541,0,2.69,0.319,3.494,1.104
		c0.758,0.78,1.081,1.816,1.081,3.035c0,1.975-0.92,3.264-2.483,3.977v0.044c1.149,0.346,1.748,1.45,2.091,3.472
		c0.347,2.139,0.668,3.449,0.876,3.933h-1.793c-0.23-0.461-0.53-1.932-0.828-3.839c-0.345-2.117-1.011-2.92-2.53-2.92h-0.688v6.759
		h-1.771V293.319z M-206.377,300.468h0.736c1.7,0,2.828-1.241,2.828-3.105c0-1.793-0.737-2.896-2.644-2.921
		c-0.345,0-0.69,0.024-0.919,0.095V300.468z"/>
	<path fill="#ED8604" d="M-197.642,303.18c0.024,3.402,1.356,4.138,2.645,4.138c0.757,0,1.401-0.185,1.839-0.437l0.274,1.309
		c-0.62,0.347-1.563,0.532-2.435,0.532c-2.667,0-4.046-2.184-4.046-5.588c0-3.61,1.518-5.86,3.747-5.86
		c2.278,0,3.172,2.388,3.172,4.919c0,0.413,0,0.713-0.023,0.989H-197.642z M-194.148,301.868c0.046-2.23-0.805-3.217-1.655-3.217
		c-1.149,0-1.748,1.699-1.815,3.217H-194.148z"/>
	<path fill="#ED8604" d="M-183.824,307.157c0,2.92-0.37,4.024-1.103,4.828c-0.67,0.76-1.726,1.194-2.968,1.194
		c-0.942,0-1.861-0.229-2.435-0.552l0.414-1.379c0.437,0.232,1.17,0.485,2.069,0.485c1.403,0,2.274-0.876,2.274-3.406v-1.124h-0.047
		c-0.391,0.872-1.195,1.356-2.137,1.356c-1.975,0-3.263-2.231-3.263-5.494c0-4.095,1.86-5.793,3.495-5.793
		c1.194,0,1.746,0.78,2.069,1.446h0.044l0.091-1.265h1.588c-0.024,0.784-0.091,1.774-0.091,3.473V307.157z M-185.574,301.292
		c0-0.276-0.024-0.572-0.091-0.804c-0.209-0.757-0.599-1.699-1.608-1.699c-1.289,0-1.978,1.723-1.978,4.183
		c0,2.853,0.898,4.138,1.978,4.138c0.528,0,1.217-0.253,1.584-1.585c0.091-0.346,0.114-0.689,0.114-1.012V301.292z"/>
	<path fill="#ED8604" d="M-179.458,294.58c0.024,0.69-0.414,1.151-1.08,1.151c-0.575,0-1.012-0.461-1.012-1.151
		c0-0.689,0.461-1.147,1.036-1.147C-179.871,293.433-179.458,293.891-179.458,294.58z M-181.365,308.583v-11.13h1.77v11.13H-181.365
		z"/>
	<path fill="#ED8604" d="M-170.31,303.018c0,4.3-1.998,5.746-3.7,5.746c-1.999,0-3.607-1.814-3.607-5.723
		c0-4.071,1.813-5.769,3.721-5.769C-171.918,297.272-170.31,299.132-170.31,303.018z M-175.851,303.018
		c0,1.84,0.323,4.343,1.931,4.343c1.521,0,1.816-2.617,1.816-4.343c0-1.703-0.296-4.323-1.86-4.323
		C-175.551,298.695-175.851,301.316-175.851,303.018z"/>
	<path fill="#ED8604" d="M-166.538,293.086v6.645h4.347v-6.645h1.769v15.496h-1.769v-7.244h-4.347v7.244h-1.77v-15.496H-166.538z"/>
	<path fill="#ED8604" d="M-156.653,303.18c0.024,3.402,1.356,4.138,2.644,4.138c0.761,0,1.403-0.185,1.84-0.437l0.276,1.309
		c-0.622,0.347-1.565,0.532-2.439,0.532c-2.664,0-4.044-2.184-4.044-5.588c0-3.61,1.517-5.86,3.744-5.86
		c2.277,0,3.176,2.388,3.176,4.919c0,0.413,0,0.713-0.023,0.989H-156.653z M-153.158,301.868c0.048-2.23-0.804-3.217-1.655-3.217
		c-1.151,0-1.75,1.699-1.817,3.217H-153.158z"/>
	<path fill="#ED8604" d="M-149.548,292.673h1.77v15.91h-1.77V292.673z"/>
	<path fill="#ED8604" d="M-138.469,292.673v13.243c0,0.76,0.071,2.021,0.091,2.668h-1.514l-0.118-1.403h-0.067
		c-0.366,0.803-1.151,1.584-2.322,1.584c-1.887,0-3.243-2.045-3.243-5.699c0-3.956,1.632-5.793,3.358-5.793
		c0.804,0,1.584,0.39,2.022,1.332h0.047v-5.932H-138.469z M-140.215,301.686c0-0.232,0-0.484-0.024-0.737
		c-0.114-1.151-0.803-2.16-1.655-2.16c-1.47,0-1.979,2.046-1.979,4.276c0,2.345,0.599,4.229,1.887,4.229
		c0.552,0,1.309-0.3,1.699-1.908c0.048-0.208,0.071-0.46,0.071-0.736V301.686z"/>
	<path fill="#ED8604" d="M-134.745,303.18c0.024,3.402,1.356,4.138,2.644,4.138c0.757,0,1.403-0.185,1.837-0.437l0.279,1.309
		c-0.622,0.347-1.565,0.532-2.439,0.532c-2.668,0-4.044-2.184-4.044-5.588c0-3.61,1.518-5.86,3.748-5.86
		c2.274,0,3.169,2.388,3.169,4.919c0,0.413,0,0.713-0.024,0.989H-134.745z M-131.249,301.868c0.044-2.23-0.804-3.217-1.654-3.217
		c-1.151,0-1.746,1.699-1.817,3.217H-131.249z"/>
	<path fill="#ED8604" d="M-127.643,300.327c0-1.309-0.067-1.975-0.091-2.874h1.541l0.091,1.336h0.047
		c0.484-0.898,1.379-1.517,2.551-1.517c1.541,0,2.691,1.146,2.691,3.839v7.472h-1.77v-7.173c0-1.312-0.252-2.644-1.54-2.644
		c-0.737,0-1.448,0.619-1.679,1.817c-0.044,0.276-0.068,0.619-0.068,0.986v7.015h-1.773V300.327z"/>
	<g>
		<path fill="none" d="M-221.904,292.908c-0.048-0.083-0.09-0.208-0.129-0.354c-0.579,0.259-1.21,0.507-1.972,0.613
			c0.078,0.194,0.229,0.522,0.503,0.961c0.269,0.432,0.728,0.938,0.967,1.182c0.22,0.001,0.522-0.324,0.689-0.346
			c0.08-0.011,0.143-0.008,0.207,0.068c-0.007-0.198-0.017-0.344-0.03-0.392C-221.735,294.409-221.681,293.296-221.904,292.908z"/>
		<path fill="none" d="M-215.125,295.24c0,0,0.064-0.046,0.162-0.116c0.143-0.2,0.454-0.622,0.771-0.962
			c0.431-0.462,0.585-1.57,0.585-1.57l0.267,0.135c0.277-0.369,0.659-0.743,0.659-0.743s-0.864-0.393-1.276-0.485
			c-0.367-0.083-1.109-0.739-1.109-0.739s-0.306,1.164-0.38,1.455c-0.111,0.438-0.393,0.762-0.393,0.762s-0.191,0.6-0.214,1.085
			c-0.019,0.405-0.096,0.713-0.135,1.032c0.07-0.087,0.138-0.147,0.179-0.154C-215.876,294.917-215.125,295.24-215.125,295.24z"/>
		<path fill="#ED8604" d="M-212.21,311.217c-0.144-0.337-0.08-1.008-0.08-1.3c0-0.034-0.102-0.809-0.239-1.631l-0.123-2.115
			l-0.352,0.102c-0.245-0.678-0.456-1.624-0.598-1.878c-0.156-0.279-0.26-0.77-0.346-0.902c-0.087-0.133-0.415-1.979-0.519-2.483
			c-0.104-0.505-0.465-2.163-0.879-2.721c-0.415-0.557-0.622-0.863-0.656-1.142c-0.005-0.045-0.013-0.09-0.021-0.135
			c0.013,0.001,0.023,0.008,0.037,0.007c0.375-0.022,0.265-0.161,0.508-0.184c0.243-0.023,0.531-0.162,0.774-0.277
			c0.377-0.179,1.22-0.754,1.482-0.947c0.259-0.191,0.568-0.407,0.838-0.657c0.474-0.227,1.58-0.944,1.58-0.944l-0.596-0.301
			c0.06-0.108,0.105-0.213,0.123-0.315c0.066-0.369,0.331-0.508,0.376-0.6c0.044-0.092,0.243-0.416,0.199-0.67
			c-0.044-0.254-0.332-0.808-0.332-0.808s-0.203-0.323-0.335-0.577c-0.133-0.254-0.744-0.855-0.987-0.924
			c-0.243-0.069-0.955-0.624-0.955-0.624s-0.597-0.993-1.614-1.201c-0.582-0.119-1.126-0.19-1.548-0.25
			c-0.089-0.146-0.267-0.393-0.49-0.489c-0.096-0.041-0.297-0.062-0.555-0.07c0.026-0.258,0.013-0.49,0.051-0.548
			c0.049-0.071,0.071,0.029,0.23-0.123c0.226-0.215,0.292-0.489,0.362-0.667c0.07-0.177,0.016-0.494-0.137-0.412
			c-0.152,0.082-0.093-0.048-0.093-0.048s0.432-0.941-0.2-1.789c-0.163-0.188-1.202-1.059-2.321,0.118c0,0-0.244,0.212-0.244,0.813
			c0,0,0.022,0.672,0.035,0.731c0.012,0.058-0.327-0.249-0.34,0.128c-0.011,0.377,0,0.682,0.234,0.978c0,0,0.036,0.071,0.198,0.071
			c0,0,0.012,0.635-0.035,0.706c-0.007,0.011-0.041,0.04-0.084,0.075c-0.085,0.004-0.167,0.01-0.239,0.021
			c-1.246-0.144-3.122,0.642-3.78,1.061c-1.367,0.87-1.051,1.143-3.158,1.244c-2.106,0.101-2.601-1.069-6.09-1.349
			c-3.49-0.279-4.777,2.411-4.873,2.395c0,0,2.318-0.682,3.939,0.977c1.621,1.658,2.036,3.415,2.036,3.415s1.617-1.691,5.399-1.861
			c0.12,0.109,0.226,0.189,0.286,0.251c0.071,0.074,0.192,0.399,0.395,0.771l-0.348,0.334c0,0,1.907,1.853,2.96,2.071
			c0.079,0.069,0.169,0.108,0.316,0.108c0.332,0,0.907,0.069,1.017,0.162c0.106,0.088,0.272,0.195,0.344,0.083
			c-0.132,0.388-0.455,1.301-0.768,1.859c-0.294,0.526-0.753,1.746-0.81,2.35c-0.057,0.603-0.26,2.137-0.294,2.456
			c-0.035,0.318-0.242,0.863-0.363,1.035c-0.121,0.173-0.448,0.903-0.672,1.275c-0.106,0.175-0.195,0.47-0.261,0.804l-0.298-0.046
			v3.464c-0.017,0.131-0.033,0.236-0.045,0.305c-0.069,0.372-0.311,0.517-0.346,0.863c-0.034,0.345-0.363,0.751-0.466,0.871
			c-0.104,0.119-0.714,0.377-0.69,0.589c0.038,0.358,0.4,0.401,0.901,0.415c0.501,0.014,1.257-0.03,1.516-0.242
			c0.259-0.213,0.241-0.266,0.328-0.332c0.086-0.066,0.242-0.026,0.328-0.199c0.086-0.172-0.414-1.726-0.31-2.416
			c0.014-0.094,0.042-0.192,0.077-0.292c0.566-0.752,1.634-2.572,1.634-2.572l-0.254-0.039c0.034-0.195,0.051-0.392,0.051-0.576
			c0-0.504,0.283-1.204,0.387-1.337c0.103-0.132,0.217-0.235,0.449-0.762c0.12-0.272,0.045-0.354,0.443-0.914
			c0.352-0.497,1.306-2.35,1.375-2.629c0.069-0.279,0.829-1.54,0.829-1.607c0-0.067,0.19,0.026,0.276,0
			c0.087-0.027,1.347,2.668,1.52,3.053c0.173,0.386,0.529,1.102,0.874,1.327c0.346,0.225,0.363,0.624,0.38,0.716
			c0.017,0.093,0.345,0.81,0.38,0.904c0.034,0.092,0.197,1.008,0.335,1.566c0.011,0.044,0.027,0.096,0.046,0.15l-0.438,0.175
			c0.205,0.02,0.904,1.799,1.838,2.785c0.064,0.233,0.104,0.478,0.096,0.719c-0.018,0.517-0.403,1.243-0.351,1.535
			c0.052,0.292,0.052,0.399,0.189,0.425c0.139,0.026,0.242,0.061,0.294,0.046c0.086,0.093,0.521,0.464,1.087,0.518
			c0.858,0.138,1.682-0.145,1.64-0.551C-210.778,312.339-211.851,312.053-212.21,311.217z M-221.846,294.963
			c-0.167,0.022-0.469,0.347-0.689,0.346c-0.239-0.244-0.698-0.749-0.967-1.182c-0.274-0.439-0.425-0.767-0.503-0.961
			c0.762-0.106,1.393-0.354,1.972-0.613c0.038,0.146,0.081,0.271,0.129,0.354c0.223,0.388,0.169,1.501,0.235,1.732
			c0.014,0.048,0.023,0.193,0.03,0.392C-221.703,294.955-221.765,294.953-221.846,294.963z M-216.188,295.094
			c0.039-0.319,0.116-0.627,0.135-1.032c0.022-0.485,0.214-1.085,0.214-1.085s0.282-0.324,0.393-0.762
			c0.074-0.29,0.38-1.455,0.38-1.455s0.742,0.657,1.109,0.739c0.412,0.092,1.276,0.485,1.276,0.485s-0.381,0.374-0.659,0.743
			l-0.267-0.135c0,0-0.154,1.109-0.585,1.57c-0.317,0.34-0.629,0.762-0.771,0.962c-0.097,0.07-0.162,0.116-0.162,0.116
			s-0.751-0.323-0.884-0.3C-216.05,294.947-216.117,295.007-216.188,295.094z"/>
	</g>
</g>
</svg>
