<?xml version="1.0" encoding="utf-8"?>
<!-- Generator: Adobe Illustrator 18.1.1, SVG Export Plug-In . SVG Version: 6.00 Build 0)  -->
<svg version="1.1" id="Ebene_1" xmlns="http://www.w3.org/2000/svg" xmlns:xlink="http://www.w3.org/1999/xlink" x="0px" y="0px"
	 viewBox="0 0 81 17" enable-background="new 0 0 81 17" xml:space="preserve">
<g id="g680" transform="translate(49.8288,32.2115)">
	<path id="path682"  fill="#58585A" d="M-3.876-25.778c0.537-0.27,1.008-0.292,1.232-0.292
		c1.212-0.022,2.198,0.695,2.622,1.811c0.094,0.208,0.224,0.629,0.224,1.248c0,1.733-1.068,2.54-1.655,2.811
		c-0.23,0.114-0.611,0.248-1.21,0.248c-1.733,0-2.779-1.402-2.801-3.015C-5.465-24.654-4.463-25.485-3.876-25.778 M-6.092-32.211
		l-0.944,2.448l-0.222,0.136c-0.845,0.549-2.598,1.963-3.233,4.648c-0.21,0.889-0.232,1.671-0.232,1.991
		c0,3.384,1.859,6.108,5.052,7.248c1.42,0.509,2.65,0.553,3.221,0.553c4.594,0,7.909-3.275,7.909-7.867
		c0-0.976-0.148-1.759-0.232-2.095c-0.633-2.428-2.386-3.844-3.083-4.309l-0.513-0.323l0.934-2.43h-3.626L-1.6-30.81
		c-0.367-0.036-0.737-0.054-1.106-0.046l-0.28,0.002l0.519-1.358H-6.092z"/>
</g>
<g id="g684" transform="translate(63.0734,31.2095)">
	<path id="path686"  fill="#58585A" d="M9.325-22.775v-2.791h0.849
		c0.893,0,1.835,0.176,1.835,1.364c0,0.413-0.138,0.695-0.234,0.839c-0.383,0.575-1.03,0.589-1.579,0.589H9.325z M10.517-29.428
		h-6.15v14.915h4.958v-5.936l3.003,5.936h5.599l-3.636-6.018c0.507-0.184,0.881-0.327,1.33-0.635
		c0.663-0.477,1.539-1.408,1.539-3.336c0-1.533-0.587-2.432-0.962-2.911c-1.066-1.4-2.616-1.867-4.339-1.973
		C11.413-29.428,10.964-29.428,10.517-29.428"/>
</g>
<g id="g688" transform="translate(42.1414,31.2095)">
	<path id="path690"  fill="#58585A" d="M-11.538-22.775v-2.791h0.849
		c0.891,0,1.835,0.176,1.835,1.364c0,0.413-0.138,0.695-0.234,0.839c-0.383,0.575-1.032,0.589-1.579,0.589H-11.538z M-10.346-29.428
		h-6.148v14.915h4.956v-5.936l3.003,5.936h5.599l-3.636-6.018c0.505-0.184,0.881-0.327,1.33-0.635
		c0.663-0.477,1.537-1.408,1.537-3.336c0-1.533-0.585-2.432-0.962-2.911c-1.064-1.4-2.614-1.867-4.337-1.973
		C-9.45-29.428-9.899-29.428-10.346-29.428"/>
</g>
<g id="g692" transform="translate(33.3789,34.5416)">
	<path id="path694"  fill="#58585A" d="M-20.272-32.761v4.313h3.005v10.602h5.343v-10.602h3.025
		v-4.313H-20.272z"/>
</g>
<g id="g696" transform="translate(54.9862,27.0715)">
	<path id="path698"  fill="#58585A" d="M1.264-10.375H11.35v-3.991H6.178v-1.653h4.636v-3.798
		H6.178v-1.482H11.2v-3.991l-9.936,0V-10.375z"/>
</g>
<g id="g700" transform="translate(32.2477,34.4026)">
	<path id="path702"  fill="#58585A" d="M-21.399-32.344c-1.174-0.461-2.548-0.767-3.818-0.767
		c-2.272,0-4.556,0.871-5.603,3.003c-0.188,0.377-0.545,1.196-0.545,2.35c0,2.626,1.927,3.52,2.817,3.838
		c0.595,0.192,1.575,0.405,2.214,0.511l0.349,0.074c0.429,0.106,0.843,0.311,0.843,0.837c0,0.571-0.587,1.042-1.557,1.042
		c-1.342,0-2.634-0.861-3.66-1.569l-1.661,3.928c1.981,1.036,3.788,1.653,6.074,1.653c1.781,0,3.209-0.401,4.535-1.579
		c1.533-1.408,1.721-2.957,1.721-3.776c0-1.008-0.27-2.983-2.735-3.943c-0.639-0.236-1.747-0.491-2.408-0.641l-0.361-0.072
		c-0.419-0.098-0.871-0.292-0.871-0.815c0-0.581,0.517-0.871,1.362-0.893c1.192,0,2.176,0.553,3.143,1.128l1.515-3.698
		C-20.379-31.893-20.826-32.119-21.399-32.344"/>
</g>
</svg>
