<?xml version="1.0" encoding="utf-8"?>
<!-- Generator: Adobe Illustrator 18.1.1, SVG Export Plug-In . SVG Version: 6.00 Build 0)  -->
<svg version="1.1" id="Ebene_1" xmlns="http://www.w3.org/2000/svg" xmlns:xlink="http://www.w3.org/1999/xlink" x="0px" y="0px"
	 viewBox="0 0 81 17" enable-background="new 0 0 81 17" xml:space="preserve">
<g id="g680" transform="translate(49.8288,32.2115)">
	<path id="path682" inkscape:connector-curvature="0" fill="#000C36" d="M-4.195-25.741c0.534-0.268,1.002-0.29,1.224-0.29
		c1.205-0.022,2.185,0.691,2.606,1.8c0.093,0.206,0.222,0.625,0.222,1.24c0,1.723-1.062,2.524-1.645,2.794
		c-0.228,0.113-0.607,0.246-1.203,0.246c-1.723,0-2.762-1.393-2.784-2.997C-5.774-24.624-4.778-25.449-4.195-25.741 M-6.397-32.135
		l-0.939,2.433l-0.22,0.135c-0.839,0.546-2.582,1.951-3.213,4.62c-0.208,0.883-0.23,1.661-0.23,1.979
		c0,3.364,1.848,6.071,5.021,7.204c1.411,0.506,2.633,0.55,3.201,0.55c4.566,0,7.861-3.255,7.861-7.819
		c0-0.97-0.147-1.748-0.23-2.082c-0.629-2.413-2.371-3.82-3.064-4.283l-0.51-0.321l0.929-2.415h-3.604l-0.536,1.393
		c-0.365-0.036-0.732-0.054-1.099-0.046l-0.278,0.002l0.516-1.349H-6.397z"/>
</g>
<g id="g684" transform="translate(63.0734,31.2095)">
	<path id="path686" inkscape:connector-curvature="0" fill="#000C36" d="M8.844-22.751v-2.774h0.843
		c0.887,0,1.824,0.175,1.824,1.355c0,0.411-0.137,0.691-0.232,0.833c-0.381,0.572-1.024,0.585-1.57,0.585H8.844z M10.029-29.363
		H3.917v14.824h4.927v-5.9l2.985,5.9h5.564L13.78-20.52c0.504-0.183,0.875-0.325,1.322-0.631c0.659-0.474,1.53-1.399,1.53-3.316
		c0-1.524-0.583-2.417-0.957-2.893c-1.06-1.391-2.6-1.855-4.312-1.961C10.92-29.363,10.474-29.363,10.029-29.363"/>
</g>
<g id="g688" transform="translate(42.1414,31.2095)">
	<path id="path690" inkscape:connector-curvature="0" fill="#000C36" d="M-11.763-22.751v-2.774h0.843
		c0.885,0,1.824,0.175,1.824,1.355c0,0.411-0.137,0.691-0.232,0.833c-0.381,0.572-1.026,0.585-1.57,0.585H-11.763z M-10.578-29.363
		h-6.11v14.824h4.925v-5.9l2.985,5.9h5.564l-3.614-5.981c0.502-0.183,0.875-0.325,1.322-0.631c0.659-0.474,1.528-1.399,1.528-3.316
		c0-1.524-0.581-2.417-0.957-2.893c-1.058-1.391-2.598-1.855-4.31-1.961C-9.687-29.363-10.134-29.363-10.578-29.363"/>
</g>
<g id="g692" transform="translate(33.3789,34.5416)">
	<path id="path694" inkscape:connector-curvature="0" fill="#000C36" d="M-20.389-32.695v4.286h2.987v10.538h5.31v-10.538h3.006
		v-4.286L-20.389-32.695z"/>
</g>
<g id="g696" transform="translate(54.9862,27.0715)">
	<path id="path698" inkscape:connector-curvature="0" fill="#000C36" d="M0.883-10.401h10.024v-3.967h-5.14v-1.643h4.608v-3.774
		H5.767v-1.472h4.991v-3.967H0.883V-10.401z"/>
</g>
<g id="g700" transform="translate(32.2477,34.4026)">
	<path id="path702" inkscape:connector-curvature="0" fill="#000C36" d="M-21.503-32.28c-1.167-0.458-2.532-0.762-3.794-0.762
		c-2.258,0-4.529,0.865-5.568,2.985c-0.187,0.375-0.542,1.189-0.542,2.336c0,2.61,1.915,3.499,2.8,3.814
		c0.591,0.191,1.566,0.403,2.201,0.508l0.347,0.073c0.427,0.105,0.837,0.31,0.837,0.831c0,0.568-0.583,1.036-1.548,1.036
		c-1.334,0-2.618-0.855-3.638-1.56l-1.651,3.903c1.969,1.03,3.765,1.643,6.037,1.643c1.77,0,3.189-0.399,4.507-1.57
		c1.524-1.399,1.711-2.939,1.711-3.753c0-1.002-0.268-2.965-2.719-3.919c-0.635-0.234-1.736-0.488-2.393-0.637l-0.359-0.071
		c-0.417-0.097-0.865-0.29-0.865-0.81c0-0.577,0.514-0.865,1.353-0.887c1.185,0,2.163,0.55,3.124,1.121l1.506-3.675
		C-20.489-31.832-20.933-32.056-21.503-32.28"/>
</g>
</svg>
